<svg xmlns="http://www.w3.org/2000/svg" viewBox="0 0 1858 811.16"><defs><style>.cls-1{fill:#060606;}.cls-2{fill:#0f0f0f;}.cls-3{fill:#111;}.cls-4{fill:#101010;}.cls-5{fill:#1c1c1c;}.cls-6{fill:#121212;}.cls-7{fill:#070707;}.cls-8{fill:#1a1a1a;}.cls-9{fill:#090909;}.cls-10{fill:#313131;}.cls-11{fill:#0e0e0e;}.cls-12{fill:#1b1b1b;}.cls-13{fill:#171717;}.cls-14{fill:#191919;}.cls-15{fill:#131313;}.cls-16{fill:#151515;}.cls-17{fill:#161616;}.cls-18{fill:#303030;}.cls-19{fill:#3e3e3e;}.cls-20{fill:#0d0d0d;}.cls-21{fill:#181818;}.cls-22{fill:#3f3f3f;}.cls-23{fill:#1f1f1f;}.cls-24{fill:#404040;}.cls-25{fill:#2f2f2f;}.cls-26{fill:#212121;}.cls-27{fill:#2e2e2e;}.cls-28{fill:#3d3d3d;}.cls-29{fill:#2b2b2b;}.cls-30{fill:#141414;}.cls-31{fill:#3c3c3c;}.cls-32{fill:#393939;}.cls-33{fill:#2d2d2d;}.cls-34{fill:#3a3a3a;}.cls-35{fill:#202020;}.cls-36{fill:#323232;}.cls-37{fill:#272727;}</style></defs><title>websiteTexture</title><g id="Layer_2" data-name="Layer 2"><g id="Layer_1-2" data-name="Layer 1"><path class="cls-1" d="M1174.08,1.15h199c8.16,6,15.57,11.93,15.61,23.84a43.54,43.54,0,0,0,5.46,21.84c2.43,4.19,1.77,9.38-.32,14.05-5.54,12.35-3.21,24.63-1,37.4,2.43,13.82,5.8,28.41-2.95,41.61-3.3,5-2.23,12.12-8.15,15.84-.8.51.53-.07.78.14,8.34,6.6,9.32,12.88,2.67,22.6-3.22,4.73-3.24,9.06-.39,13.5s7.59,4.52,12.25,3.6c6.67-1.32,8.63-4.86,4.69-10.18-3.46-4.64-2.76-7.92-.58-12.92,3.24-7.47,6.29-15.07,1.59-24.07s2.75-33.41,10.49-40.56c1-.88,2.06-.32,2.69-1.08-8.6-.53-11.17-6.89-5.14-15,6.3-8.5,12.45-17.2,21-23.89,3-2.35,5.59-5.88,1.46-9.82-.59-6.56-.21-13.2-1.84-19.68a5.05,5.05,0,0,1,1.63-5.27c5.76-4.8,4.23-9.73.28-14.7,2.89-5.39-2.13-12.45,3.66-17.22h78.51c5.2,6.55,4.31,21.57-1.59,26.84-5.53,4.93-11,3.6-12.71-3.11-.6,5.85-.75,6.71-5.81,9.34a19.33,19.33,0,0,0-9.5,10.49A42.42,42.42,0,0,1,1476.28,59c-3.78,3.77-6.22,8.26-5.64,13.87.29,2.86,1.13,5.45,4.21,6.41a6,6,0,0,0,7.15-2.73c3.21-5.19,8.08-9.09,10.85-14.58,2.66-5.29,7.15-9,11.39-12.89a9.1,9.1,0,0,1,11.62-1.12c3.66,2.24,6.3,5.3,4.82,10.25a21.58,21.58,0,0,0-.73,6.32c.13,23.07-.16,46.14-2.11,69.12-1.41,16.55,5.33,31.09,11.54,45.33,3,7,5.11,12.41,1.76,18.32,6.89-1.9,10.41-10.44,19.32-10.25,9.58.19,13.26,5.08,9.48,14-2.35,5.57-4.87,11.12-8.51,16.06-1.58,2.16-3.56,4.21-3.36,7.27,5.73-4.9,9.13-11.25,13.68-24.28,3.9-11.16,10.76-21,14.42-32.35,1.09-3.39,4.51-7,8.55-6.2,4.55.94,6,5.18,6.12,9.82.21,10.89-.41,20.61-7.94,30.42-8.73,11.37-12.53,26.12-19.33,39-2.17,4.11-.21,7.07,4.4,7.9,6.7,1.19,9.08,5.73,10.62,11.87,2.68,10.75.2,21.13-1.09,31.63-.41,3.31-.81,6.62-1.12,9.94-.65,6.86,2.57,10.73,8.78,13.07,15,5.65,15.9,9.14,6.64,22.57-3.69,5.35-7.64,10.83-1.81,17.25a25.25,25.25,0,0,0,1.23,2.21c3.47,3.36,5.81,6.76,3.29,12.06s2.08,10.16,1,15.81c-2.19,11.35-7.87,20.05-16.81,27-1.49,1.15-4,1.72-1.59,4.7,1.44,1.8.78,4.66.11,7-.86,3-3.55,6.72,1.34,8.4a8.36,8.36,0,0,0,10.28-3.92,76.09,76.09,0,0,0,7.53-16.52c.35-1.17.47-2.39.75-3.57,1-4.14,2.41-8.31,7.76-7.31,6,1.13,6.72,6.43,4.88,10.57-2.51,5.66-.49,11.21-1.61,18.4,0-.49-1.25-1.85-.1-1.45.35.12.52-.12.54-.72.58-14.19,1.36-28.35,3.08-42.47a35,35,0,0,1,5.1-15.32c4.76-7.42,2.13-16,2.7-24.06.29-4,.58-7.63,2.46-11.22,3.39-6.46,6.59-13,6.59-20.62a10.11,10.11,0,0,1,1.4-4.25c4.07-8.44,9.75-16.09,12-25.4,1-4,7.64-4.48,7.39-7.57a33.85,33.85,0,0,1,1.07-12.41c1.1-3.83,1.3-7.78,1.71-11.71a21,21,0,0,0-.31-6.33c-1.8-9.17,1.72-14.57,10.8-15.39,5.9-.53,10.74-4.05,16.56-4.69a5.06,5.06,0,0,0,4.27-6.13c-1.59-8.09,4.95-12.41,8-18.25,2.61-5,7-4.33,10-.51,2.85,3.61,6.76,5.37,9.95,7.44-4.64-1.52-8-5.6-12-8.81-6.94-5.58-8.13-13.84-1.46-19.59,8.76-7.56,16.33-16.16,24.14-24.56,3.53-3.8,8.18-3.23,12.52-4.41-9.12-7.95-9.18-11.85-1.94-21.14,5.69-7.31,11.93-14.35,11.08-25-.56-7,6.51-10.56,10-15.64,5.6-8,10.83-16.62,19.58-21.93,3.74.67,5.79,3.09,6.64,6.58,1.51,6.17,3.77,12.14,5.21,18.32-.39-8.09.18-16.43-6.39-22.89-3.86-1.52-7.44-3.81-10.6,1.69-2,3.57-5.49,3.15-8.5.21-3.2-3.13-4.93-6.42-1.19-10.15,2.57-2.56,6-4.1,7.85-6.4-12.15,7.86-18.75,21.52-28.22,32.69-11.6,13.68-24.73,25.91-37.68,38.28-4.32,4.12-7.7,1-10.45-2.53-4.21-5.45-4-13.17,1.07-16,6-3.32,10.43-8.25,15.29-12.8,19-17.82,33.55-39.84,53.19-57.11,3.71-3.26,5.79-7.76,7-12.61a26.28,26.28,0,0,1,1.37-5.26c2.68-5.75,12.77-5.94,12.72-8.31-.13-6.12,2-8.54,6.86-10.33h42c3.53,4.18,1,9.18,1.83,12.87.84-3.69-1.67-8.68,1.82-12.87C1841,1.15,1852-1.94,1856,2s.87,14.94.87,22.85v96.68c-.86,14.12-3.1,28.1-2.42,42.39s-1.07,28.87-1.34,43.31c-.07,3.68-1.77,8.83,3.76,11v9.12c-4.68,10.13-3.48,21.22-3.21,31.6.2,7.68,1.56,15.47.59,23.24-.38,3.08-.68,5.66,2.62,7.18v239c-4.41,3.79-8.85,2.26-12.37.23,6.84,1.14,7,7.82,8.4,13.4,1.14,4.64,1.24,9.55,4,13.73v45.6c-4.53,5.91-8.89,2.62-13.39-.12-1.91-1.16-4-3.71-6.35-1.61-1.95,1.75-.91,4.53-.4,6.86a12,12,0,0,0,3.89,7c6.6,5.32,12.37,11.29,16.25,18.91v83.91c-11.29,10.16-18,22.18-16.32,38,.88,8.14-5,10.29-11.39,11.17-2.87.4-4.87.26-6.22,3.79-1.45,3.81-5.13,4.74-9.14,2.66a19.87,19.87,0,0,0-8.74-2.19c2.36,3.87.73,20.74-2.4,23.61-2.75,2.53-6.3,2-9.48,1.66-8.76-1-16.58.43-24.1,5.54s-16.59,7.86-25.39,10.61H761.49c-4.07-5.33,2.47-10.66-.11-15.1a22.32,22.32,0,0,1-3.54,15.1H374.46c-6.08-3.79-12.17-4.3-18.25,0H159a5.35,5.35,0,0,0-3.42-.91c-38.52.66-77-1.36-115.52-1.47-5.47,0-11.27-1.78-16.15,2.38H.22V685.18c8.35-6.36,12.92-4.76,15.42,5.27,1.55,6.22,1,13,5.1,18.55-.43,11.55,3.93,21.92,7.65,32.52,2.22,6.32,6.28,9.49,12.68,9.9,29.68,1.93,59.31,4.58,89,5.84,25.75,1.09,51.59,1,77.18,4.73a47.12,47.12,0,0,0,5.45.46c15.83.55,19.82-4.7,14.68-19.33,6.35-10,6.58-10.11,17.1-5.84,7.88,3.2,16.35,4.44,24.15,8,5.78,2.66,10.23,6.08,13.46,11.57,4.63,7.88,15,11.55,23.72,9,2.45-.73,5-1.84,5.4-4.37,1.41-8.23,8.43-8.91,14.25-10.44,10.94-2.87,13.49-4.74,12.27-15.75-1.83-16.47-4.56-33.23-10-48.58-4.91-13.77-18.81-21.16-33.7-22.82-9-1-17.06-2.37-25.35-7.07a254.79,254.79,0,0,0-43.46-19.41,43.07,43.07,0,0,1-21.68-17.15c-4.09-6.29-9.66-10.37-17-10.88-6-.41-10-3.25-14.08-7.17-16.84-16.34-37.87-23.32-60.46-27.11-2.84-.48-5.24,3.54-7.92.34-16.58-17.73-33-34.71-57.48-43.07-13.92-4.75-28.21-10.58-41-18.66a14.69,14.69,0,0,1-5.41-5.46V329.48c5.42-6.62,9.93-7.52,17-3,7.58,4.81,16.78,6.16,22.6,11,2.59,1,.89,1.86,1.65.91.15-.19,0-.36-.39-.56-9.68-4.56-19.3-9.19-25.27-18.76a11.16,11.16,0,0,0-4.45-4.48c-7.83-3.5-9.55-10.64-11.14-17.92V280.23c2.86-2.71,5.23-1.46,8,.53,7.39,5.33,15.08,10.2,24.22,12.06a5.44,5.44,0,0,1,3.18,1.46C45.55,305.39,58.73,312.9,68.68,324c4.84,5.41,11,9.51,15.14,15.66,1.55,2.3,4.49,3,7.27,3.4,17.85,2.71,35.56,3.15,53-2.69,2.43-.82,3.24-2.08,3.9-4.31,4.46-15,15.68-18.55,27.1-8.44,4,3.56,8.27,6.16,13.62,6.73,5.17.55,8,3,9.09,8.43,2.74,13.4,8.62,19,22,17.94,10.95-.9,21,1.84,31.39,3.52,2.39.39,4.71,1.18,7.2.83,5.36-.74,11.32-.66,8.13-9.23-1-2.77-.51-6.09.13-9,1.77-8.09,10.61-11.07,16.88-5.67,3.64,3.14,6.68,6.92,10.35,11.62-1.61-14.84-4.45-28.29-6.19-41.91-1.37-10.75-16.19-25.15-26.7-26.39-4.82-.57-7-3.22-9.65-6.94-7.8-11-5.13-24.33-8.92-36.18-1.47-4.6-1.94-9.52-3.72-14.07-.67-1.7-1.94-3.88-1.06-5.18,8-11.77-.7-24.67,2.71-36.85,1.55-5.54-.67-11.38-3.47-16.63a91.89,91.89,0,0,1-4.76-9.84c-3.08-8-4.64-15.39-3.69-24.8,1.77-17.38,5-35.65-3.08-52.83a10,10,0,0,1,.47-9.63c4.87-7.72,2.31-13.67-3.91-19.17-7.77-6.86-7.79-7.06-1.11-15.32,2.34-2.89,2-5.56.66-8.43-2.59-5.5-5.41-10.78-9.74-15.28-5.4-5.6-4.9-7.3,2.11-12.14H445.66c8.62,4.66,8.3,4.43,2.82,11.9-5.69,7.75-7.69,17.05-8.19,26.44-.23,4.48-.63,8.29-4.23,11.34-3.84,3.25-4.5,6.86-1.16,11.09,3.68,4.65,1.08,8.29-3.09,10.15-7.93,3.55-11.61,9.28-11.64,17.8,0,2.77-1.91,5.08-2.84,7.64-3.26,9-2.95,9.76,6.29,13,3.36,1.2,6.24,3.63,5.76,6.87a7,7,0,0,1-7.29,6c-3.91,0-7.83.56-10.51.15,6.83-.54,14.93,1.14,23-.34,6.37-1.16,10.81,2,13.56,7a13.74,13.74,0,0,1-.56,14.5c-3.23,5-7.57,7-13.8,5.5s-12.72-.78-19.09-.69c-12.46.17-20.84,10.86-17.6,22.76a22.68,22.68,0,0,1-.06,13.28c-3,9.76,5.17,16.15,8.1,24.14.8,2.19,3,3.63,3.86,6,3.24,8.79,3.59,9.18,11.68,3.32,6.36-4.6,12.18-2,17.79.21,4.24,1.68,5.13,5.87,1.76,9.58-6.51,7.15-12.59,15.05-23.53,15.72a15,15,0,0,0-6.52,2c15,14.07,31.45,12.11,49.47,6.1,20.35-6.78,41.95-9.16,62.67-15,14.31-4,26.82-9.82,34-23.91-1-2.13-3.67-2.57-5.56-4-4.44-3.35-6-7.34-3.42-12.55,4.55-9.12,7.16-19.53,17.36-24.81a8.9,8.9,0,0,0,4.83-8.3c-.14-4.74,2-8.1,6.25-11.71-6.86.05-12.7-.16-18.14,2.9a6.13,6.13,0,0,1-4.34.83c-21.11-3.94-41.41,2.79-62.05,5-7.72.81-15.09-.6-22.51-1.59-3.47-.46-6.49-4-6.78-7.64-.26-3.31,2.56-5.78,5.86-6.82,4-1.25,6.48-3.18,7.57-7.82,1-4.15,4.84-6.43,9.54-7.07,9.35-1.28,18.71-2.68,28.13-1.74,10.76,1.08,20.8-1.82,31.21-3.62,11.4-2,23.3-2.27,35-2.17,4.58,0,7.25,6.62,12.69,6.8,2.86.15,3.15,3,5.1,4.9C583.89,115,572.35,95.42,560.44,76.05c-.6-.59-1.18-1.2-1.73-1.83-2.34-2.7-2.53-6-2.69-9.36,1.76-7.32-5.28-9.12-8.8-12.23A31.43,31.43,0,0,1,536.05,30.8c-.8-8.21-3.12-15.76-12.12-19.63-3.2-1.38-7.74-4.85-3.42-10h85.81c6.92,2.3,9.53,7.16,11.48,14.27,3.61,13.22,7.65,26.29,9.09,40,.67,6.35,6.46,7.18,10.1,10.34a3.32,3.32,0,0,1,.43.76c.23.74,1,1.16,1.12.87,1.54-5.82,2.54-11.74,1.93-17.78a27.72,27.72,0,0,1,2.54-14c3.81-8.85,4.93-9.21,13.72-3.39,1.17,2.22,3,4.27,1.84,7.09a31.84,31.84,0,0,0,13.35,17.47c8.31,5.49,15.22,12.55,23,18.65,3.08,2.77-.8,6.11.74,9-.12,1.56-1.17,2.74-1.69,4.12-2.65,7-4.41,7.53-10.15,2.7-3.92-3.3-7.36-7.14-11.12-10.64a28.15,28.15,0,0,0-12.8-7.32c4.91,6.6,9.25,11.53,15.27,14.58,11.52,5.84,13.68,18.44,20.3,27.8,1.37,1.92-.1,4.07-1.64,5.58-2.18,2.14-4.1,4.4-4.9,7.4-4.42,2.1-9.16,2.91-14,3.48-.47-.93-1.93-.92-2.21-1.93.1.13,0,.06.1.14,5.09,4.89,6.16,11.56,8.14,17.7,1.43,4.44-1.82,6.88-5.32,8.75-.47.2-.69.23-.47.2,6.63-1.28,8.84,3.25,10,8,1.85,7.7,3.17,15.45,9.25,21.31a4.81,4.81,0,0,1,.47,6.64c-2.18,2.9-4.61,6.07-8.87,5.1-9.7-2.2-17.94-.19-24.92,7.16-3.33,3.51-6.85,2.66-9.81-.91a28,28,0,0,1-3.86-6.16c-3.22-6.91-7.21-13.13-13.36-17.91-3.88-3-5.07-6.77-2.62-11.7,4-8,.07-17.55,3.41-24,1.76,12.25-10.36,22-11.13,35.61-.2,3.47-.4,5.74,2.64,7.6a11.75,11.75,0,0,1,2.74,2.39c4,4.64,6,10.25,4.23,16-1.92,6.3-8.08,5.32-13.12,5.26-5.55-.06-11-.62-14.48,5.19-1.52,2.55-4.45,4.69-3,8.06,1.39,3.21,4.7,3.53,7.77,3.73,5.46.37,10.93.15,16.39.26,9.78.21,19,1.78,28.14,6.05s18.79,8.49,28.91,10.83c3.91.9,7.37,2.74,9.64,6.15a2.28,2.28,0,0,1,1.65.25,22.59,22.59,0,0,1,15.21,2.71c9.9,5.46,16.39,1.25,15.31-9.83-.77-7.94.56-15.68.48-23.49-.16-15.55.31-31,3.21-46.33.48-2.53.07-5-3.05-5.69C711.79,165.9,701.12,155.64,689,148c-1.78-1.13-3.49-2.41-5.25-3.58-8.11-5.36-8.17-6.71-.81-13.76,3.2-.62,6.81,1.6,9.69-1.28,6.18-4,11.34.5,14.06,4,5.51,7.21,13.83,8.44,20.74,12.53,3.12,1.84,5.35.65,5.87-2.93s1.59-7.21,1.36-10.82c-.35-5.68-.89-11,3.22-16,2.39-2.89.39-6.31-1.69-9.16-3-4.11-3.78-8.93.08-12.37a21.51,21.51,0,0,1,17.13-5.48c2.14.25,3.29,2.75,3.33,3.48.41,8.3,5.25,15.56,4.6,24.25-1.3,17.23-2.15,34.51-2.68,51.79-.1,3.23-2,8.15,3.28,9.1,4.72.86,9.64.75,13.37-3.68,7-8.31,8.35-19.16,1.74-28.51-4.27-6-5.89-12.51-6.9-19.37a35.11,35.11,0,0,0-4.69-13.7c-3.75-6-7.95-11.57-8.54-19-.17-2.16-2.07-3.87-4.26-4.87a1,1,0,0,0-1.34.06c-6.85-11.67-19-19.15-25.16-31.26a97.4,97.4,0,0,1-8.11-23c-2.08-9.21-10.58-14.43-17.65-20.16-1.87-1.51-4.21-2.36-6.09-4-4.73-4-3.76-6.88,1.5-9.15H712.2c5.91,6.43,13.13,11.37,20.21,16.23,5.4,3.71,12.05,5.48,15.85,11.56,1.56,2.5,4.13,2.57,6,0,5.14-6.9,9.57-3.82,14.11.73,2.33,2.34,4.68,4.76,9.21,6.27a39.21,39.21,0,0,1-5.92-12.21c-1.14-3.56-2.07-6.85,1.29-9.9,3.62-3.28,6.74-1.53,9.74.7A56.21,56.21,0,0,0,812.31,26c6.88.34,13.52,3,20.51,1.93a156.6,156.6,0,0,1,19-.15c4,.14,8-.41,10.85,4.26,2.66,4.34,7,.09,10.61,0a17.59,17.59,0,0,0,10.24-4.24c-4.81,4.19-11.17,3.91-16.77,5.81-.86.29-2,.39-2.55-.35-8.93-11.76-21.21-3.37-31.76-5.32-8.13,1.94-12.94-4.2-18.85-7.69-2.89-2.18-5.84-1.13-8.86-.31-7.4,2-17.61-4.09-19.41-11.43-1.15-4.69,2.91-5.36,5.37-7.29h220.9c4.16,3.36,4,6.87.65,10.79a12.28,12.28,0,0,0-3.33,7.37c-.2,7.14-4.29,11.89-9.6,15.57-7.62,5.27-10.15,12.4-9.47,21.24.24,3,.06,6.06.16,9.09.13,4-1.41,7.48-5.1,8.68a8.1,8.1,0,0,1-9-3.16c.35,1.1,1.6,2.71.77,4.74-4.44,10.83-1,21.94-1.31,32.91-.28,9,4.4,16.32,6.75,24.41.56,1.92,1.63-.72,2.69-.49,7.41,1.6,10.56-1.49,10.12-9-.2-3.33,2.68-5.16,4.42-7.59,5.76-8.05,10.7-16.34,4.91-26.66a13.61,13.61,0,0,1,.12-13.94c8.79-15.26,15.77-31.23,19.87-48.41a10.35,10.35,0,0,1,3.61-5.12,59.89,59.89,0,0,0,14.78-20.48H1161.3c3.33,6.45,0,12.72-1.28,18.72-.86,3.87-5.66,6.19-10.19,5.1-6.2-1.49-10.52.9-14.23,5.44a9.14,9.14,0,0,1-2.61,2.51c-8.39,4.15-15.61,8.59-8.39,19.56,1.23,1.87-.77,3.9-2.09,5.53-2.86,3.52-6.57,6.18-9.69,9.44a13.64,13.64,0,0,1-2,.62c-.54.21-.3-.61.47-.13,1,.61,0-.59,1,.11A10.18,10.18,0,0,1,1116,73c4.22,10.86,5.73,11.18,13.85,3.17,5-4.9,10.22-9.41,15.64-13.82,6-4.91,7.89-11.79,9.17-19.73,1.05-6.6,11.67-9.32,11.41-18.23-.06-1.8.3-3.64-.31-5.39C1162.7,10.28,1166.81,5,1174.08,1.15Z"/><path class="cls-2" d="M213.81,1.15c-.53,2.37-1.63,5.32.61,6.85,7.61,5.21,9.43,13.91,13.33,21.28C233.62,40.41,233,41.44,219,44.56c9.08,2.64,14.22,6.55,14.89,14.55.45,5.36,3,10.75-2.72,14.9-1.36,1-2.06,3-1,4,8.77,9,3.62,20.13,4.61,30.24.86,8.73,2.5,18.16.19,26.25C230.77,149,239.5,158.8,244,170.32c3.37,8.68,2.4,17.74,1.3,26.67-.3,2.42-1.42,4.8,0,7,3.86,6,7.22,11.65-1,17-1.67,1.09-.34,3.29-.05,5.07,2,12.09,7.74,23.31,7.08,36.18-.18,3.54,4.55,8.16,5.84,12.72,2.11,7.44,8,3.36,12.18,4.4,4.57,1.14,9,1.75,9.67,7.76.35,3.18,2.62,5.53,5,7.42,6.27,5,10.06,11.44,10.28,19.39.47,16.6,7.33,32.6,5.09,50.5-8.22-4.93-12.85-12.14-18.67-18.05-1.59-1.62-2.81-3.23-5.27-2.58-2.8.74-3.54,3-4,5.51-1,6.13,1.67,11.25,4.25,16.43.78,1.58,2.31,3.26,1.12,5.05-1.4,2.11-3.79,1.43-5.87,1.24-12.7-1.17-25.42-1.37-37.8-5.72-6.86-2.42-14.4,1.08-22.24-.54-12.32-2.55-16.2-10.85-18.76-20.58-1.07-4.07-2.06-5.53-6.15-5.78-5.91-.37-11.2-2.66-14.89-7.59-3.12-4.19-7.23-5.77-11.95-3.89-5.06,2-5.71,6-4.65,11.28,1.63,8.12-1.95,10.68-10.22,7.77-2.48-.87-4.79-1.13-7.05,0-16.85,8.08-34.07,1-51.1,1.18a7.68,7.68,0,0,1-6.59-4.45c-4-8.83-13.26-12.69-18.7-20.56-5.09-7.35-14.32-11.78-21.57-17.7C27.19,295.56,11,292,.22,280.23V179.91c4.06-6.21,8.45-7,13.76-1.24,2.84,3.06,6.73,4.79,10.27,6.59-8.84-5.77-11.29-15.91-11-24.54.34-11.43-4.58-17.52-13-22.77C.22,95,.44,52.06,0,9.12-.07,1.85,2.11.62,8.6,1c10,.57,20,.15,29.95.15C49.37,6.56,57.89,14.31,63.44,25.22c2,3.88,4.91,6.83,10.43,7.26-3.59-8.18-6.8-16.06-11.34-23.29-1.75-2.79-2.94-5.27-.24-8H181c4.39,4.75,5.63,10.51,4.89,17.08,4.81-5.5-6.88-12.47,2.41-17.08Z"/><path class="cls-3" d="M1588.46,358.65c-3.94-.46-6.74-.09-6.18-6.69.73-8.65,2.62-15.84,8.59-22.09,3.09-3.22,2.5-6.62-2-7.35-3.8-.61-6.75-3.61-10-3.75-9.26-.39-8.54-5.06-8.34-12.41.37-14.49,6.49-28.49,3.11-43.28-1.23-5.37-2.49-8.2-9-8.73-11.5-.93-12.78-3.81-7.25-13.8,7.65-13.82,12.06-29.48,20.9-42.28,6.07-8.79,7.51-17.06,7.38-26.65,0-1.48-.08-3.07-2.77-4.42-5.79,15.08-14.34,28.75-19.82,44-2.45,6.8-5.93,13.25-9.31,19.67-3,5.6-7.83,5-12.64,2.78-6.2-2.85-2.11-6.28-.34-9.55,4-7.46,9.84-13.87,12.82-22,1-2.73,4.35-5.93,1.6-8.21a8.31,8.31,0,0,0-10.92.71c-5,5.09-14.7,6-13,16.06-4-.75-3.92-2.88-3.83-4.56.9-17.42-6.66-32.72-12.11-48.53-4.3-12.45-3.51-25.46-2.19-37.94,1.91-18.22,1.14-36.36,1.21-54.53,0-4.23,4.58-10.44-2.1-12.89-6.18-2.27-8.63,4.25-10.55,8-3.88,7.5-11.66,12.07-14.51,19.85-2.65,7.23-8.3,7.77-13.87,7.14-5.91-.67-7.74-6.48-8.67-11.37a18.58,18.58,0,0,1,6.1-18.18c4.47-3.91,8.2-8.58,9.58-14.13,1.78-7.13,4.71-12.27,12.31-14,2.77-.62,3.83-3,3.57-5.65-.57-5.72,2.94-8.64,7-11.67,3,4.23-.48,12.63,5.1,12.5,6.84-.17,3.51-8.36,5.07-12.87,1.18-3.4,1.44-7.12,2.12-10.69h82.15c4.41,6.41-.57,11.44-3.72,15.38-2.67,3.33-5.13,7.27-8.74,10-6.59,4.9-1.62,12.1-3.53,17.93.72.09,0-.71.75-1,8.52-3.06,13.48,0,13.94,8.91.61,11.62-1.75,23.05-3.12,34.47-1,8.22-2.54,16.73-2.37,24.72.28,13.19-4.47,23.21-12.74,32.31,0-1.34,2-1.45,1.93-3,8.75,2.19,5.61-5.26,7.11-8.87.93-2.23,1.43-4.67,3.16-6.49,18.53-19.58,33.34-42.43,53.19-60.8,10.2-9.43,16.61-22.45,29-29.82,2.77-1.64,3.87-5.28,5.27-8.36,1.27-2.81,3.13-5.39,6.34-6.49A14.53,14.53,0,0,0,1693,12c2.49-5.51,7.87-7.62,12.35-10.8h82.15c-.43,1.71-1.73,3.86-1.13,5.07,3.26,6.59,2.25,11.08-5.47,12.43-6.6,1.15-7.87,4.36-9.12,9.69-1.11,4.72-4.38,8.53-7.92,12-8.86,8.71-17.57,17.59-26.34,26.41-.85.86-2.19,1.59-2.47,2.62-3.9,14.12-15.84,21.07-26.14,29.47-5.08,4.14-5.17,12.85-14.54,13.7-3.19.28.84,6.51.64,10.63,6.18-2.47,9.24-7.18,13-10.94,6.09-6,9.54-14.46,18.16-18.36a11.24,11.24,0,0,0,6.56-10.27c0-2.39,1.51-3.81,3.51-4.89,6.72-3.64,11.31-8.74,12.85-16.6a9.62,9.62,0,0,1,7.38-7.44c4.68-.88,8.59-2.54,11.93-5.89,1.28-1.29,3.24-2.38,4.84-.79,2,2,.39,4-1,5.54-2.61,3-5.46,5.7-8.1,8.62-1.22,1.36-2.48,3.08-1.16,4.88s3.34,1,4.83-.05c3.58-2.64,8-3.77,10.85-7.91,3.46-5,4.47-1,5.12,2.29-.53,6.77-5.18,8.6-10.94,9.1-4.9,10.17-12.44,18.52-19.18,27.39-3.08,4-8.25,7.37-1.91,12.77a2.54,2.54,0,0,1-.39,4c-6.82,4.56-7.57,13.75-14.36,18.39-2.77,1.9-4.84,4.7-3.7,8.6s4.08,4.92,7.78,4.69c2.25-.14,4.42.19,5,2.85s-1.28,3.89-3.42,4.57c-12.18,3.84-22.92,9.62-29.5,21.25-.55,1-1.83,1.57-2.83,2.25-15.08,10.18-15.3,14.66-1.19,26.23,3,2.49,6.46,4.6,9.22,7.37,2,2,3.14,5,.19,7.15-2.6,1.92-5.82,1.3-6.91-1.66-2.35-6.39-10.7-5.26-13.3-11.33-.65-1.5-2.88,0-3.39,1.49-1.23,3.55-7.61,5.75-4.64,9.79,3.42,4.66,3.5,7.43-1.27,10.25-3.42,2,.55,5.15-1.74,8-6.26-3.73-11.69-.42-18.16,1.23-9.27,2.35-11.28,4.09-11,14.22.41,12.88-7.2,25.68-1.47,39.24-4.62.89-4.38-6.05-8.14-4.49-3.59,1.5-1.8,6.25-3.83,8.81-10.11,12.77-11,29.26-17.53,43.51-3.23,7-3,15.78-2.09,23.79.61,5.38.07,8.87-4.1,13.52-5.84,6.5-5.24,16.52-5.72,25-.53,9.42-4.13,18.61-.8,28.56,2.51,7.51-6.5,6.5-9.84,7.16-4.92,1-1.61-4-2-6.44-1.06-7.37,5.06-14.25,1.49-23.36-3.67,9.76-6.78,18.14-10,26.48-2.52,6.55-21.71,9.9-26.23,4.62-2.07-2.42-.62-4.72.61-6.72,3.78-6.17,5.87-11.93-1.94-16.79-.65-.41-.43-2.19-.64-3.44,7.66.74,18.41-6.19,20.34-14.05,1.65-6.7,5.94-13.12,1.78-20.9-2.49-4.65,3-10.4.38-15.84Z"/><path class="cls-2" d="M106.1,572.1c15.44-4.08,29.2,1.81,42.65,7.83,10.47,4.69,20.61,10.29,28,19.68,2,2.5,4.84,3.26,8.09,3.5a27.57,27.57,0,0,1,20.41,10.65c8,10.12,17,17.34,30.32,21.1,10.17,2.87,20.17,8.65,30.06,13.51,2.33,1.14,4.33,2,6.85,1.06,2.16-.84,5.1-1,5.27,1.54.53,8.08,6.29,6.55,11.07,6.49,16.2-.21,28.84,7.71,39.81,18.25,7.19,6.91,7.27,17.26,8.33,26.46,1.34,11.74,7.45,22.54,6.4,34.68-.17,1.95,1.5,3.13,2.68,4.54,3.28,3.94,5,7.65-2.62,8.25-.9.07-2.56.26-2.58.5-1,12.42-11.76,4.21-17,8-2.56,1.85-6.49,1.69-3.91,6.59,1.11,2.11-.28,4.35-2.73,4.89-11.08,2.42-22.26,4.09-33.05-1-2.91-1.37-7.23-3.13-7.36-6.33-.4-9.84-7.92-11.78-14.67-13.48-10-2.5-19-9.54-30.16-7.11-2.07,2.73-4,3.67-7.56,1.52a814.91,814.91,0,0,0-86.6-46.18c-13.32-6-27.49-11.49-38.61-21.92-4.07-3.82-10.35-3.6-14.86-6.77-22.17-15.57-48.24-24.07-70.7-39-4.92-3.29-9.21,3-13.41-.72V517.36c4.34-3.52,8.53-5.38,12.44.74A11.52,11.52,0,0,0,16.5,520c14,3,26,11.18,39.25,16.13,11.8,4.4,20.76,12.73,30.22,21.08,10.28,9.08,17.61,20.88,28.78,28.86,1,.67-.93,1,0,.2.26-.23.22-.45-.09-.71C110.37,582,103.33,580.15,106.1,572.1Z"/><path class="cls-4" d="M589.9,132.57c-8.54-6.6-17.89-5.43-27.52-3.15-3.76.88-7.69,2-11.64.11-2.37-1.11-4.76-.4-7,.8-3.35,1.81-5,11.33-10.75,2.44-7.31,8.43-15.06,1.33-22.62.63-8.58-.79-16.94,1.17-25.36,2.14-3.59.41-6.23,1.81-1.91,5.61,5.14,4.53,1.51,6-2.8,6.74s-11.85-.43-11.49,4.16c.44,5.66,7.4,2.2,11.6,2.47,20.07,1.32,39.57-3.36,59.28-5.73,3.67-.44,7.19-1.18,10.72.38.83.37,2.23,1.17,2.46.92,7.58-8.09,17.37-2.45,25.9-4.31,1.39-.31,2.62-1.3,5.78-2.94-2.6,5.87-4.45,10.06-6.32,14.24-.12.27-.52.51-.5.74,1.68,17.86-19,21-23.28,35.55-2.09,7.14-3.93,11.85,4.35,15.1,1.94.76,3.6,2.23,5.42,3.32,1.58.94,3.41,1.77,3.17,4s-2.09,2.88-3.93,3.14c-7.13,1-10.26,5.44-11.47,12.21-.82,4.58-3.12,7-9,6.25-8.48-1.12-16.24,4.06-23.91,6.52-18.55,6-38.29,6.82-56.27,13.8-11.66,4.51-23.66,4.31-35.41,6.73-2.32.48-5.92,1.16-6.63-1.33-2.53-8.85-9.42-9-16.47-9.31-3-.15-6.67.43-7.53-3.47-.93-4.18,1.78-6.55,5.28-8.53,4.43-2.49,9.45-3,14.06-3.19,9.82-.43,14-7.82,21.23-13.34-7.31-2.73-12.72-4.18-18,1.2-2.52,2.57-6.48,3.2-10.17,3.55-8.7.82-10-.57-7.13-8.53,1.15-3.19-.34-5-1.23-7.83-3.29-10.34-16.06-18.41-8.34-31.6.94-1.61,1.29-3.69-.07-5.17-6.14-6.66-1.77-13,.73-19.14,1.55-3.8,5-6.58,5.4-11.26.37-4.38,4.41-3.27,7.31-3.15,10,.41,20.05.57,30,1.54,7.36.72,8-3.26,7.93-8.82-.1-6-3.31-8.87-8.73-7.27-11.42,3.37-22.72-2-34.38,1.3,1.7-16.13,15-9,23.2-12.65-1.26-1-1.85-1.81-2.53-1.89-14.47-1.67-14.71-1.72-10.49-15.8,1.73-5.79,2.5-11.84,4.28-17.44,2.31-7.24,5.71-14.93,16-15.68-7.88-5.68-8.3-12.48-1.19-18,3.39-2.65,2.69-5.83,3.88-8.71,4.37-10.57-.86-24.8,12.1-32.15,2.61-1.48.85-4.4-.25-6.58h74.85c1.49,1.48,3,4.31,4.46,4.25,17.61-.74,13.19,14.76,15.92,23.34,2.44,7.64,3.52,14.49,10.66,19.7,5,3.61,8.51,9.42,7.27,16.54-2.46,3.23-2.81,5.91,1.89,7.28l0,0c1.29.63,3.89,1.61,3.32,2.32-5.94,7.37,9.84,13.19,1.32,20.46-3.62,8.41-10,10.77-18.93,10a26.09,26.09,0,0,0-14,2.58c12.47-.8,26.07,1.36,33.41-13,4.2-3.7,5.54-.94,7.9,2.64,6.1,9.21,9.78,19.95,17.58,28.05C594.41,128.47,593,130.63,589.9,132.57Z"/><path class="cls-2" d="M686.56,126.71c-1.54-2.51-4.52-4.12-4.73-7.51,2.28-2.19,5.64,2.08,7.4-1.07s-1.81-4.7-2.71-7.07c-3.81-10-10.13-17-19.7-22.38a25.59,25.59,0,0,1-13.31-23.39c12,1.55,20.55,9.27,28.68,17.87,2.55,2.68,5.44,8,10,1.83,4.36-5.27-2.56-4.77-3.69-7.24C681.56,67.41,670,62.36,661.08,54.21c-5-4.6-8-8.26-7.25-14.81,6.76-1.24,4.9-4.22,1.88-8-2.33-2.89-8.13-2.14-7.83-7.59.15-1.79.51-3.44,2.31-4.34,2.1-2,7.15.7,7.18-4.66,0-4.18-1.16-7.42-5.49-8.82-1.34-.44-1.62-1.55-1.61-2.8A13.93,13.93,0,0,1,652,1.15h43.81c-.31,2.7.52,4.84,3.16,5.93,9.94,4.11,14.62,14.43,23.49,19.86a6.2,6.2,0,0,1,2.3,4.72c-.64,17,9.71,27.38,20,39.23,6.26,7.19,16.36,13.85,16.18,25.94-.06,3.85,5,4.11,6.4,7.28,2.95,6.9,7.09,13.11,8.33,21,1,6.32,1.06,13.54,8,18.38,3.93,2.74.36,10.42,4.06,14.29,6.13,6.44-2,8-3.5,11.71a75.86,75.86,0,0,1-4.72,8.84c-2.62,4.66-6.5,7.24-12,6.25-2.55-.46-4.79-1.07-6.42,1.57-1.32,2.16-2.82,4.4-5.74,2.93-2.64-1.34-2-4.17-2.13-6.54-1.09-21.57,2.3-43,2.31-64.56,0-5.16-.52-10.26-.6-15.39-.14-8.56-2.63-9.84-10.91-6.54-5.29,2.11-7.58,4.76-1.52,8.57,4.16,2.61,5.79,6.52,2.94,9.93-8.25,9.83-3.64,21.94-6.73,32.6-.87,3,1.35,7.32-2.46,9s-7-.89-9.7-3.46c-2.94-2.82-6.51-4.43-10.11-6.05-5.87-2.65-14-2-15.62-11-.13-.74-3.31-.93-5.07-1.37C693.54,130.79,686.35,133.23,686.56,126.71Z"/><path class="cls-5" d="M.22,628.63c4.4-10.8,4.57-11,14.8-4.06,14.86,10.17,32.57,14.79,47.54,24.5,12.72,8.24,27.36,13.34,39.44,21.6,13.34,9.11,28.63,14.19,41.4,23.74,6.06,4.53,13.56,5.09,20.07,8.43,23.39,12,46.27,24.85,68.49,38.88,3.16,5.18,9.35,9.26,5,16.9-4.21,7.47-10.72,9.1-18.53,8.69-23.94-1.27-47.77-3.95-71.8-4.53-26.69-.63-53.33-3-80-4.66-11.22-.71-22.41-1.65-33.62-2.51-5.93-.46-8.61-3.14-9.66-9.61-2-12.39-9.13-23.86-6.77-37.1a4,4,0,0,1-1.22-2.39c-.06-4.14-1.14-9.41,3-11.48,4.84-2.45,8.23,2.69,9.7,5.88C33.23,712.1,45,714,53.54,720.29c2.91,2.15,4.28,4,3.63,7.6-.86,4.77.52,8.21,6.3,8,.15,0,.32.41.47.63L64,736c-5.76-1.24-8.08-4.2-7.07-9.25.86-4.26,3.26-5.75,7.72-4.73,17.81,4.09,36.12,4.1,54.14,6.51,23.08,3.1,46.45,4.18,69.25,9.39,2.9.66,6.22-.62,7.28.47-2.18-1.86-7.09-.54-11.34-2-16.64-5.56-29.36-18.13-45.82-24-30.18-10.76-55.84-30.4-84.5-44.18-10.41-5-19.5-12.17-30.21-16.65A60.53,60.53,0,0,1,.22,634.1Z"/><path class="cls-6" d="M.22,634.1c9.55.32,15.44,7.93,23.16,11.87,23.83,12.19,48,23.93,70.63,38.16,18.9,11.91,40.24,18.49,59,29.74,16.66,10,35.12,15.94,51.31,26.46,1.5,1,3.32,1.47,3.65,4.78L60.66,727.59c3.28,6.63,10.48,5.72,16.62,10-9.68,3.14-17.86,3.67-25.74.4-8.42-3.5-3.73-7.28,1.13-10.21-5-4.4-9.14-8.1-15.83-8.73-6.1-.58-6.88-7.92-10.6-11.76-2.18-2.26-2.42-7.4-6.54-6.43-3.23.76-2,5.27-3.06,8-4.1-3.8-3.88-9.39-4.93-14.09C10.18,688,6.47,685.5.22,685.18Z"/><path class="cls-4" d="M1437,1.15c11.21,4.29,3.27,10.71,1.84,16.41-.65,8.89-5,14.76-12.73,19.67-9.86,6.24-17.42,14.55-16,28.25a28.29,28.29,0,0,1-3.4,15.61c5.43-7.15,14.63-14.25,21-23.93,1.95-3,6.4-3.21,9.35.52,5.38,6.45,4.57,11-3.42,14.86-9.86,4.74-11.83,16.5-19.4,23.49a3.36,3.36,0,0,0,.37,5c3.69,2.74,5.64-2.82,9.74-2.07.63,4.83-3.37,7.23-5.8,10.24-8.22,10.13-15.17,22.79-9.79,34.17,4.41,9.32-.58,16.18.76,24,.43,2.51-.69,4.71-2.27,6.71-2.82,3.55-4.82,6.26,2.11,8.16,4.11,1.13,1.65,14.54-3,17.36-7.33,4.45-21.89,2.67-27.29-4-3.4-4.18-2.08-10.58-6.23-15-1.29-1.37,2.15-2.74,4.16-3.57,8.42-3.45,9.41-10.27,2.59-16.63-4-3.76-7.41-7.84-6.9-14.06,3.86-1.17,3.34,4.46,6.52,3.66,3.57-5.65,3.26-13,8.64-18.16,2.3-2.21-2.46-7.1.94-10.42-5.54-4.49-3.11-8.54.43-12.85,1.41-1.71.57-4-.19-6.12-5.51-15.06-6.75-30.08.47-45,.63-1.3,1.27-3.38.69-4.38-6.69-11.39-5.16-24.87-9.47-36.5-1.79-4.81-7.15-9.08-7.62-15.38Z"/><path class="cls-2" d="M1042.63,1.15c3.56,5.07,2.31,9.37-1.39,14-5.85,7.33-12.63,14.07-15.25,23.64-1.13,4.12-2.87,8.05-2,12.4.63,3.27-.21,4.81-3.2,7.2-7.22,5.76-9.33,15.08-12.74,23.33a4.94,4.94,0,0,0,.86,4.32c5.21,5.45,8.53,10.56,2.6,18-3.93,4.94-1.72,12.88-8.91,17.14-5.17,3.07-1.46,10.65-4.22,15.91-2.23,4.25-2.06,9.27-7.53,2.29-2.45-3.12-6-3.52-6.63,2.16-.17,1.63-.75,3.09-2.59,3.17-2.23.11-3.36-1.62-3.71-3.4-3-15-10.58-29-8.72-44.91a8.9,8.9,0,0,0-1.55-6.88c-2.86-3.76-2.86-6.8,1.23-10.08,3.25-2.6,3.29-7,3.48-11,.2-4.22.5-8.41,4.78-11.1,2.79,3.57-2,11.71,5.13,10.71,5.48-.77,1.85-7.41,1.73-11.08-.39-11.81,2-21.65,13.66-27.25,1.54-.74,3.69-2.51,3.67-3.79-.13-9.82,7.66-16.23,10.29-24.8Z"/><path class="cls-3" d="M1610.4,1.15h85.8c3.4,3.08,1.88,5.66-.77,8.21-18.19,17.47-36.12,35.23-53.29,53.68a400.34,400.34,0,0,0-38.76,47.9c-2.13,3.14-4.39,6.39-8.61,4.64s-5.39-5.32-3.79-9.68c2.39-6.54,1.59-13.58,2.33-20.28,1.59-14.56,4.31-29.05,5-44.48-3.21,2.14-6,3.32-9.18,2.83-4-.63-6.82-2.28-6.19-7.19.71-5.56,2.34-10.47,6.2-14.84C1595.71,14.47,1601.8,6.55,1610.4,1.15Z"/><path class="cls-2" d="M1743.67,811c8-10.14,20.95-13.29,30.68-21.18,3.81-3.1,10.71-2.77,16.4-1,3.33,1.05,8.56,2.89,8.28-2.68-.2-3.92,7.71-11.19-3.29-12.51-6-.73-4.32-3.57-1.64-6.58,5.49-6.19,12.12-3.79,18.57-2.39,1.89.41,3.44,3.3,5.6,1.19,1.48-1.45.46-3.42-.2-5.12-.76-2-2.1-4.27.16-5.78,2.9-1.94,4.38.7,5.73,2.68,2.2,3.25,5,2.78,8,1.62,2.67-1,4.65-3.47,3.16-5.57-6-8.45.73-14.84,3-21.9,1.26-4,2.94-7.69,4-11.79,2.17-8.08,9.43-3.48,14.64-3.87,0,29.79-.11,59.59.13,89.38,0,4.56-1,5.62-5.6,5.59C1815.47,810.94,1779.57,811,1743.67,811Z"/><path class="cls-7" d="M1610.4,1.15c-1.79,8.77-9,13.48-14.78,19.11-5.93,5.79-6.06,12.94-6.78,20.4,4.19-4.73,8.39-8.86,15.51-9.83-.95,26.52-7.91,52.3-7.35,79.06,9-13,20.3-24,29.47-36.68a71.05,71.05,0,0,1,7.62-9c19.36-19.16,37.93-39.14,58.66-56.88,2-1.74,2.73-3.9,3.45-6.2h9.13c-.24,6.35-5.77,9.47-9.5,12.67-11.39,9.78-19.27,22.65-29.26,33.52C1653.9,61.12,1639,72.91,1628,88.62c-9.46,13.48-21.16,25.61-31.62,38.56-2.87,3.56-5,6.92-5,11.23,0,5.16-2,9.36-5.23,14.07-6.43-14.19-9.17-1.3-13.17,1.51-3.84-1.94-1.81-4.06-.74-6.11,3.36-6.47,6.58-13,10.11-19.39,2.75-5,3.07-9.9,2.77-15.65-.38-7.59,1.65-15.32,2.73-23,1.74-12.28,3.51-24.57,3.38-37,0-2.62.55-6-3.32-6.46-3.39-.41-3.6,2.53-4.14,4.9-.59,2.59-1.65,5-4.88,3.73a5.38,5.38,0,0,1-3.38-6.71c1-3.82,3-6.6-3.13-8.85-4.3-1.58-.25-6.37,1.58-8.08,9.52-8.87,15.76-20.19,23.69-30.22Z"/><path class="cls-3" d="M1174.08,1.15c-2.19,6.68-6.6,13-.28,20.23,3.67,4.2-5.8,7.86-2,13-3.49,1.9-1.42,10.66-9.2,7.39-1.15-.48-3,.77-2.51,1.84,5.23,12.16-5.77,17.72-11.64,22.94-7.86,7-15.88,13.93-23.6,21.18-4.09,3.84-7.9,8.21-9.86-2-.8-4.19-9.71-5.33-5.13-12-3.48-2.06-5.05,3-8.85.4,6.51-4,4.77-14.06,14.28-16.16,4-.88,3.92-5,1.79-9.07-5-9.55-3.08-14.47,7.38-17.44,7.51-2.13,10.76-8.62,15.7-13.31,3-2.89,4.88-5.82,7.85-.26,1.18,2.22,3.45,2.57,5.55,1.43,2.91-1.58.67-3.05.06-5-2.05-6.72,5.71-8.31,7.64-13.09Z"/><path class="cls-3" d="M810.78,28.5c-13.7,5-23.18-3.67-33.93-11.94-.43,6.32.17,12.07,4.27,13.13,6.94,1.79,4.65,7.73,7.13,11.33.7,1-.76,2.88-1.8,2.41-5-2.29-11.69,2.35-15.81-3.84a30.89,30.89,0,0,0-5.37-6.15c-2.41-2.07-5.44-5.35-5.06,1.91.23,4.31-4.71,2.18-7,3.86a4.54,4.54,0,0,1-7-2.07c-6-13.57-21.15-16.18-30.58-25.7-3.35-3.38-6.53-5.37-3.5-10.29h78.5c-.58,10,3.93,13,12.82,10.28,3.9-1.2,6.94,4.49,10.94,6.08C815.61,22,819.43,27.32,810.78,28.5Z"/><path class="cls-5" d="M652,1.15,652,3.2c6.57,7.58,6.94,11.25,1.8,18l-1.89,3.61c3.25,1.17,3.45,4.57,4.69,7,1,2-.53,3.23-2.89,2.21-8.49,1.86-7.83,8.58-7.5,14.75.57,10.61-.69,20.73-6.29,31l-8.09-9.2c-5.35-11.78-6.92-24.41-7.78-37.1-.45-6.62,0-13.27-1.41-19.85-1-4.7-.26-9.12,3.73-12.45Z"/><path class="cls-8" d="M106.1,572.1c4.07,5.39,8.68,10.08,14.88,13.11,2.19,1.07,4.43,3.19,3.19,5.79-1.55,3.29-4.21.94-6.25.1-6.72-2.78-13-5.57-16.69-13a27.63,27.63,0,0,0-13-12.37c-1.85-.88-4.11-2.1-4.94-3.78-6.61-13.37-19.21-18.92-31.76-24.22-17-7.15-34.2-13.62-51.31-20.39v-9.12c8.83.62,15.47,6.68,23.24,9.88C54.31,530.83,85.18,544,106.1,572.1Z"/><path class="cls-9" d="M.22,138c4.2-2.65,7.41-.87,10.42,2.24,3.78,3.91,7.61,7.79,13.22,11-7.5,5.33-7.28,11.09-2.85,18.45,3.35,5.56,1.68,14.79,12.35,13.89,1.06-.09,1.28,2,.47,3-2.16,2.86-6.15,5.39-8.48,3.63-4-3-9.42-2.36-12.78-6.18S5.05,179.13.22,179.91Z"/><path class="cls-7" d="M62.29,1.15c6,7.22,11.52,14.69,14.13,23.91.88,3.12,3.38,4,6.2,4.46,2.34.38,4.06,1.46,3.79,4.16-.28,2.85-2.23,4-4.82,4.62-9,2.24-18.22-1.2-22.4-9.5-2.54-5-5.83-8.2-10.43-11.56C44,13.76,41.84,6.66,38.55,1.15Z"/><path class="cls-10" d="M626.4,1.15c4,23,3.28,46.29,5.46,69.4-6.43-7.53-9.72-16.46-11.65-26-1.46-7.22-1-15.23-8.43-20-1.68-1.09-1.45-3.1-.92-4.95,2-7-.31-12.94-4.54-18.4Z"/><path class="cls-11" d="M.22,296.65C13.68,310.41,26.42,325,43,335.29c2.75,1.71,6.23,2.58,7,6.64-4.17,1.84-7.83.42-11.26-1.51-8.72-4.9-19.35-4.56-27.82-10.56-2.43-1.73-7.07-.34-10.69-.38Z"/><path class="cls-12" d="M1856.85,632.28c-9.68-4.26-17-11.84-23.66-19.42-4.91-5.58-2.23-14.1-1.66-21.17.38-4.81,4.14-1.54,6.14-.39,6.25,3.6,11.55,9,19.18,10Z"/><path class="cls-13" d="M1856.85,218.21c-4.18.74-6.34-1.26-6.91-5.22-.68-4.75-.33-9.77-4.19-13.57-.93-.92-.49-1.93.26-3.16,6.4-10.53,7.45-22.43,3.25-32.92a6.69,6.69,0,0,1,0-3.53c2.51-12.77,5.09-25.52,7.64-38.27Z"/><path class="cls-14" d="M24,811c.55-6.68,6.07-5.23,9.72-5.17,18.81.3,37.67.33,56.39,1.94,17.92,1.55,35.8,1.11,53.7,1.42,5.16.09,10.35-.14,15.28,1.81Z"/><path class="cls-14" d="M1856.85,289.35c-1.84,1-3.63,2.14-5.55,3-1.6.72-3.59,1.69-5,0s.53-3.18,1.21-4.77c3.65-8.53,5.81-16.71,3.78-26.71-2.28-11.17-2.19-23.34,5.53-33.53Z"/><path class="cls-7" d="M188.25,1.15c1.45,7.18,6.38,13.54,4.63,21.55-.79,3.58-.33,7.82-5.37,7.93s-6.87-3.48-6.92-7.84c-.09-7.21.22-14.43.36-21.64Z"/><path class="cls-8" d="M1856.85,555.67c-1.09-1-2.6-1.88-3.21-3.15-5.42-11.25-8.86-23.89-22.42-29.82,8.42,4.57,17.48,3,25.63,5.61Z"/><path class="cls-15" d="M757.84,811c-1.75-7.49-.81-14.95.52-22.36.37-2.07,1.25-4.43,4-3.91,2,.39,2.37,2.55,2.52,4.36.66,7.57.52,15-3.38,21.91Z"/><path class="cls-16" d="M1833.12,1.15c-.3,8.6.88,17.33-3.65,25.71V1.15Z"/><path class="cls-17" d="M356.21,811c7.66-9,9.46-9,18.25,0Z"/><path class="cls-2" d="M1210.58,203.65c2,5.15,5.35,7.58,10.6,4.6,6.07-3.45,13.47-.19,19.38-4.18.53-.36,2.27-.06,2.45.36,5.82,13.54,11.64,1.11,15.26-1.11,7.36-4.52,12.91-12.13,23.19-9.5.89.22,2.37-.72,3.18-1.52,4.15-4.15,8.49-3.2,12.18.11,4.38,3.93.54,7.22-2,10-3.43,3.82-2.07,8.78-3.71,12.89-5.42,13.54-9.5,28.14-18.88,39.33-7.77,9.27-9.56,20.47-14.2,30.68-1.94,4.27-3.17,6.29-7.91,6.1-7.59-.31-9.45,3.17-6.36,10.14,2.26,5.1,2,10.13-.25,15.75-4.52,11.15-6.34,23.17-9.34,34.79-2,7.74-5.84,16.45-15.21,19.79,7.1,7.72,2,15.77-.52,23.49-1.87,5.69-5.09,10.79-5.57,17.14-.38,4.88-2.86,8.78-9.13,9.53-5.47.66-12.93,1.6-6.1,10.57,2.31,3-.44,5.05-3.7,5.28-3.7.25-7.23.56-10.15,3.29-4.21,3.94-6.81,8.14-2.17,13.31s3.2,9.12-2.22,11.64c-6.13,2.86-8.56,7.09-8.11,13.69.49,7.14-4.67,12.4-7.34,18.37-3.3,7.38-7.89,14-9.91,22.2-1.62,6.52-8.46,6.54-12.92,4.16-6.64-3.55-10.48,1-13.88,4-3.11,2.72-2.84,8.65-.35,11.93,3.11,4.11,7.28,8.29,13.65,7.11,2.12-.4,5-3.12,6.06.47.79,2.63-2.36,4.18-4.53,5-12,4.29-16,14.42-18.09,25.43-1,5.14-5.64,5.91-8,9.36-11.45,16.58-18.12,36.25-33.16,50.57-3.25,3.1-2.72,9.07-6.2,12.85-1.61,1.76.09,3.39,2.22,3.72,4.18.66,7.83,3,12.32,2.95,8.47-.07,16.26,1,24.08,6.2,6.52,4.36,16.39,2.6,24.49,8.78a60.48,60.48,0,0,1-29.51-.69c-8.45-2.38-16.21-.43-24.26-.62s-16.4-.07-24.6,0c-2.36,0-5.33-.46-6.17,2.59-1.06,3.81,2.7,2.82,4.36,4.08,5.5,4.2,10.66,8.85,15.75,13.55,1.58,1.45,2.52,5.19-.58,4.52-11.17-2.43-12.33,10.66-21,11.93,19.69,9.45,42.37-.17,62.22,11-13.46,5.85-26.05,1.31-38.49,1.77-6.89.26-13.1,2.44-19.68-1.73-2.16-1.37-6,.09-9-.25-5.86-.66-8.66,1.79-10.51,7.42-5,15.23-8.58,15.16-24.1,13-17.68-2.51-30.33-13.07-44.15-21.94-5.41-3.47-11.56-3.42-16.83-6.41-5.08-2.89-9.52-5.59-15.75-.34-3.3,2.79-9.62-.63-13.46-3.37-3.32-2.37-.07-4,2.34-4.53,4.37-.86,9.23.06,13.4-4.45-6.84-2.35-13.82-2.67-20.2-3.35-7.79-.83-14.37-4.7-21.85-5.79-2.44-.36-5.15-1.62-4.5-4.69.69-3.34,4-3.91,6.64-3.39,23.62,4.73,47.59,6.14,71.54,7.81a24.41,24.41,0,0,0,6.28-.25c4.09-.8,6.57-3.39,6.26-7.67-.29-4.11-3.44-5.56-7-5.73-18.93-.91-37.53-5.4-56.73-4-16.21,1.17-32-3.91-47.93-6.22-7.75-1.13-12.77-8.18-16.83-14.51-2.68-4.18.81-8.54,4.11-11,8.54-6.49,13.47-15.73,19.66-24,1.65-2.2,3.63-4.61,2.36-7.44-1.4-3.15-4.77-2.37-7.32-2.11-6.54.66-13.49-1.49-19.57,2.6-2.05-4.46,1.3-8.92.14-13.43-3.16-.71-2.32,2.14-3.19,3.34-.74,1-1.4,2.16-2.8,1.77a2.83,2.83,0,0,1-2-3.63c1.07-3.77,1.44-8.62,4-10.93,6.34-5.7,5.58-13.92,9-20.56,1.69-3.29,1.13-6.07-3.59-5.92-2.67-1.48-2.8-3.89-1.58-6.11,1.11-2,3.18-2.46,5.31-1.08,9.1.06,10-7.23,13.39-13.36,7.66-13.63,17-26.31,25.62-39.4,4-6.05,8.57-11.45,9.59-19.43,1-8.31,7.86-14.13,13.24-20.31,1.65-1.89,3.65-2.22,5.66-.68,2.47,1.89,3.28,4.57,1.91,7.3s-3.34,5.05-5,7.57c-2.29,3.39-4.19,7.09-2,11,2.45,4.35,7,4.44,11.31,4.11,3.32-.25,6.58-1.22,9.89-1.49,2-.15,4.73-.92,5.62,1.64.83,2.36-1.23,4.67-3,5-11.82,2-22.42,12.81-35.63,5.1-2.4-1.4-3.05.81-4,2.27-3.71,5.58-7.45,11-6.91,18.33.36,4.75-2.45,8.66-4.45,12.75-1.15,2.37-3.62,5.41-1.22,7.47,2.71,2.33,5.61-.25,8-2.14.9-.71,1.52-2,3.22-1.23,1.68,3.8-.64,6.91-2.23,10.05-2,3.89-3.32,7.87-2.64,12.25s1.87,4.83,7.13,4.13c11.89-1.57,19.08-12.77,31-13.27,1.86-.08,3.39-1.05,1.81-3.68-4.64-7.7,1.31-8.55,6.57-9.57,8.05-1.56,16.37-1.09,24.38-1.06,12.4,0,24.76-1.82,37.17-.78,4.06.33,8.36-.38,9.86-4.85,1.41-4.21-1.15-7.69-4-10.52-4.66-4.58-9.62-8.26-11.16-15.73-1.29-6.28-9.26-4.16-14.07-6.25-4-1.74-10.45,1.71-12-3.86-1.53-5.38,5-7.73,7.28-11.77,6.2-10.91,17.71-17.86,21.43-30.86,1.84-6.42,8.7-10.78,13.33-15.87s8.46-10.93,12.37-16.62c1.5-2.19,5.86-3.78,1.91-7.26-3-2.65-6.33-2.09-9.11.35a18.14,18.14,0,0,1-12.34,4.86c-10.54.15-9.38-7.05-9.28-13.78h0c9.61-7.37,9.65-18.66,10.56-28.92.39-4.37-.84-9.52-.69-14.3.37-12.13,1.91-13.15,13.7-12.14,6.63.57,13.76-2.9,13.88-8.83.26-12.5,8.13-15.52,17.37-18.08,4.64-1.28,9.45-1.81,13.89-4a4.11,4.11,0,0,1,5.63,1.57c1.21,2.35-.37,4.09-2.12,5.42s-3.74,2.1-5.3,3.49c-2.26,2-2.26,4.89-1.72,7.64.61,3.16,3.23,3.3,5.7,3.3q26.9,0,53.77-.06c5.06,0,6.89-2.54,4.32-7-2.82-4.87-5.21-10.37-12.76-9.61-2.82.28-5.84-1.44-8.77-2.2-4.88-1.27-6.46-3.76-4-8.64,5.49-10.75,6.57-24.5,13.43-33.08,8.34-10.43,5-25.65,16.9-33.36.83-.54,1.25-2.16,1.33-3.31,1-15.61,9.6-28,17.14-40.87,1.57-2.69.54-6.91,2.15-9.56,8.37-13.73,9-31.34,21.53-43a4.24,4.24,0,0,0,.94-3.35c-1.81-9.67,5.63-11.94,12-13.84,16.22-4.85,33.6-7.58,47.65,3.35,10.1,7.85,22.6,11.39,33.15,21-7,.82-13.27-.17-17.06,6-1.12,1.84-4.52,1.1-6.71-.44-1.29-.91-3.4-1.94-4-.41-3.1,8-10.45,5-16,6.89a232.22,232.22,0,0,0-28.63,12.42c-3.21,1.6-6.12,3.16-9.33,1.64-8.29-3.93-14.73.74-21.07,4.52-3.5,2.08-.66,6.23-.41,9.25.3,3.74,3.2.93,5,.87,19.8-.68,38.11-7.65,56.82-13.1a113,113,0,0,1,25.46-4.12c4.25-.23,7.78-.49,10.56-3.69,4.08-4.68,9.23-3.72,14.38-3,2.73.37,3.46,2.24,3.22,4.6-.23,2.19-1.75,2.75-3.8,3.05-12.83,1.87-24.18,8.07-35.8,13.14-7.35,3.21-14.31,6.74-22.48,6.25-5.11-.31-8.77,1.8-11.71,5.68a2.49,2.49,0,0,0-3.31,0c-6.59,6.51-16,4.82-22,7.83-2.78.73-1.87-.79-1.82.43,0,.18.29.12.9,0C1193.34,209.89,1201.83,206.34,1210.58,203.65Z"/><path class="cls-4" d="M1774.7,203.62c-.2,2.22-.09,4.89,1.92,5.75,9.05,3.88,9.13,12.82,11.78,20.24,1.14,3.18,2.28,5.78,6.1,5.36s4.77-3.45,4.74-6.68c-.11-10.28.47-20.41-2.87-30.63a411.07,411.07,0,0,1-13.1-49.27c-1.22-6.32-.72-14.32,5.76-19.66,2-1.65,3-4.47,4.58-6.65,3.82-5.19,8.45-9.06,15.41-6.91,6.61,2,10.85,5.81,10.56,13.81-.49,13.27,6.22,26,3.25,39.56-.12.53,0,1.5.37,1.68,10.73,5.86,9,14.25,5.19,23.41-.49,1.15,1.09,3.32,2,4.87,2.24,3.93,3.27,8.35,1.42,12.28-4.58,9.71-5,20.52-8.83,30.42-3.56,9.15-12.32,15.61-22.17,14.95-3.1-.21-5.28,1.08-4.78,3.9,1.1,6.29-3.54,13.4,1.53,18.66,1.94,2,7,2,8.92-2.9,1.76-4.43,5.9-4.95,9.07-2.75,4.44,3.07,4.25,8.58,3.9,13.38-.37,5-4.25,3.08-7,2.53-3.29-.65-6.5.27-9.91-.47-12.4-2.67-14.38-12.63-15.58-22.38-.83-6.72-3.31-12.93-4.24-19.54-.3-2.16-1.09-4.61-3.88-4s-2.26,3.3-1.78,5.31c2.9,12,3.31,24.63,7.9,36.31,1.79,4.56,3.13,9.19,1.72,14.16-1.18,4.12,0,6.57,4.34,4.21,8-4.35,8.24,1.79,7.06,5.92-4.67,16.27-9.72,32.24-25.43,42.41-8.26,5.35-18.54,11-14,24.42.26.77.16,2.37-.23,2.55-9.84,4.33-8.5,14.51-11.71,22.26-1.69,4.09-4.8,6.82-9.81,10.46,6,.12,8,4.45,12,5.65,1.9.58,2.33,1.94,1.06,3.46-4.45,5.31-4.51,13.2-10.8,17.55-3.85,2.66-4.53,6.08-2.42,11.07,2.38,5.68-.21,12.5-2.66,17.3s.81,12.24-6.62,14.46c-.32.1-.68,1.25-.49,1.65,5.69,11.93-4.51,21.67-4.49,32.8,0,.3-.31.7-.2.87,7.63,11.21-3,22.85,1,34.55,2.37,6.9,2.29,14.44,13.5,17-7.77,3.2-12.36,1.44-14.6-2.31-6-9.92-17.06-15.85-20.77-27.39-.86-2.68-3.23-3-5.71-3.71-6.86-1.94-9.54-7.28-6.78-13.43,18.88-42.21,26.57-87.68,38.62-131.85,7.56-27.73,15.25-55.47,20.42-83.8a70.22,70.22,0,0,1,2.12-7.93c.61-1.95.82-4.79,3.71-4.3a4.19,4.19,0,0,1,3.16,5.7,34.47,34.47,0,0,0-1.13,18.69c1.09,5.38-7.23,6.1-7.9,12.43,4.59-1.36,9,5.12,13.29-.6,4.16-5.54,12.47-9.93,6-19.08a7.42,7.42,0,0,1-.47-6.19c3.38-7.88,0-14.65-2.69-21.68-4.67-12-5.69-23.7,3.8-34.18.19-.22.33-.49.5-.73-9.71-3.27-.37-9.59-2.09-14.56a15.79,15.79,0,0,1,3.07-15.31c4.27-5.26.08-11.57-1-17.79,2.43-1.47,4.21,1.76,6.41,1C1775.9,201.2,1775.75,202.41,1774.7,203.62Z"/><path class="cls-2" d="M507.77,559.34c5.86-11.16,7.87-22.17-.75-33.08-1.82-2.3-3.76-5.17-2-8.32,1-1.8,3.43-1.82,4.92-.85,3,2,8.52,1.49,8.47,6.8a32.93,32.93,0,0,0,1.74,9.76c3.11,10.63,3.08,10.64,14.39,7.41.13,8.51,1,16.53,12.2,17.41,2.58.2,3.18,3.49,1.81,6-1.66,3.08-3.47,6.24.52,8.7,4.3,2.65,7.54.55,9.94-3.2,1.33-2.1,3.53-3.76,5-1.58,6.55,9.36,18.58,8,26.7,14.29,8.79,6.79,10.1,13.83,9,24.73-2.13,21.65-9.49,42.24-11.54,63.89-.59,6.15-1.44,12.29-1.9,18.52-.53,7.32-4.76,11.13-13.43,11.4-21.93.68-43-5-64.48-7.41-7.56-.84-12.61-5.48-13.84-14.46-1-7.16,2.9-15.22-3.28-21.56a4.38,4.38,0,0,1-.41-6.11c.69-1-1.6-.43-.42-.17.58.14.7.41.35.84-3.64,4.43-5.27,4.76-8.67,1.78-.33-3.09,1.07-5.69,2.68-8.22-4.89-3.1-9.06-.62-13.31.78-1.71.57-3.64,1.62-5.17.19-2-1.9-.28-3.86.44-5.8,3.49-9.35,11-15.84,16.75-23.6,6.54-8.88,11.65-18.46,16.43-28.28,1.67-3.42,2.29-7-1.38-9.86-6.68-5.34.39-5.94,2.72-8.54C504.24,567.54,511.62,566.49,507.77,559.34Z"/><path class="cls-4" d="M576.19,709.67c-.6,3.09-3.85,2.82-5.41,4.59-3,3.37-8.13,6.83,1.16,8.83,4.93,1.06,6.37,4.77,6.21,9.69-.54,17-6.11,33.31-7.41,50.22-.25,3.18-1.55,4.92-5.16,4.9-9.09,0-18.19.44-27.28.27-4.29-.07-10.27,2.46-11.07-5.49-.16-1.56-3-1.95-3.8-.78-4.56,6.44-7.55,2.44-12.22-.45-8.6-5.32-19.14-4.82-27.93-1.69-10.87,3.88-21.65,3.2-32.33,2.79-18.25-.71-36.42-3.37-54.66-4.73-8.33-.63-11.1-5-10.77-12.54.22-4.84.53-9.67.64-14.5,0-1.39.35-2.61,1.62-2.88,11.37-2.45,17.59-13.6,28.6-16.68,6.23-1.73,5.26-8.44,7.39-12.68,2-4.07-4-2.78-6.29-4-5.55-3-10.1-7.94-16.85-8.73a3.26,3.26,0,0,1-2.88-4c.28-2.17,1.89-3.1,3.85-3.13,10-.16,20-.28,30.07-.26a4.34,4.34,0,0,1,4.58,3.7c1.53,8.56,8,9.53,13.83,6.82,25-11.54,50.65-5.88,76.2-4.34,14,.85,27.91,1.56,41.85,2.47C571,707.26,574.36,706.3,576.19,709.67Z"/><path class="cls-2" d="M991.83,344.49c.5,3.08-1.9,7.32-7.42,9.45-11.59,4.48-22,6.51-35,0-21.34-10.71-42-22.81-64.06-32.13-4.17-1.77-7.24-3.33-6.21-9.23,1.24-7.13-5.65-9.2-10.19-12.18-5.47-3.61-12.45-4.69-16.84-10.29-1.31-1.66-3.68-2.7-1.89-5.15,1.47-2,4.47-2.39,5.7-.92,7,8.3,19.68,7.75,26,17.37,1.23,1.87,6.41,1.85,9.64,1.5,2.16-.23,2.13-3.34,2.16-5.47,0-3.84-1.52-6.47-5.59-7-17.48-2.38-30.94-13.55-46-21.17-7.25-3.67-6.7-7,.3-11.25,13.09-8,27.79-13.53,38.57-25.11.92-1,3.33-2,4.06-1.53,8.62,5.68,19.33,3.55,28.69,9.21s15.57,14.43,24.81,19.77c6.09,3.52,10.15,10.65,18.48,10.09-.14,8.81,8.42,10.95,12.66,16.39,4.91,6.29,10.43,12.14,15,18.63A26.07,26.07,0,0,1,989,316.38C990.26,324.73,990.75,333.2,991.83,344.49Z"/><path class="cls-11" d="M688.47,254.71c-9.17-7.54-21.41-7.7-31.52-13.25-14.86-8.14-31.2-8.53-47.72-7.17-5.62.47-10.84-2.45-15.21-5.37-4.8-3.21-.56-7.38,1.7-10s4.73-4.66,5.54-8.74c1-5,6.25-5.1,10.48-5.17,2.68-.05,5.39,1.2,8.08,1.17,3,0,7.88,1.65,8.26-3,.35-4.23-.23-9.44-5.9-11-2.64-.74-5.4-1.07-7.45-3.13s-4-4.46-.25-6.57c4.2-2.36,4.85-5.72,4-10.05-.7-3.46.18-6.14,3.4-8.62,4.79-3.68,7.32-8.79,5.36-15.21-.5-1.64-1.64-4.21.69-4.74,6.32-1.43,2.3-3.87.94-6.17-1-1.67-3.57-3.5-.56-5.22,2.12-1.21,4.25.16,5.36,2.17,1.6,2.91,4.2,6.08,4,9-.55,9.71,4.07,19.32-.78,29.32-2,4.24,2.8,9.29,7.73,7.42s3.88.79,3.77,2.92a19.78,19.78,0,0,0,1.82,9.73c4.42,9.39,6.29,10,14,2.89,6-5.59,12.95-4,19.84-3.64,2.08.11,4.5,1.11,5.57-1.52.87-2.13-1-3.23-2.53-4.26-5.58-3.78-5.3-10-6.07-15.57-.84-6-3.16-10.33-9-12.47-1.45-2.33-.11-3.41,1.88-4.19,2.08-8-2.32-20.29-9.14-25.46,0-6.66,3.81-1.19,5.73-1.76l3.33-.11c2.52,3.11,8.77,1.59,9.16,7.36-.46,5.32,4.57,6.12,7.43,8.18,9,6.55,18.56,12.42,27.88,18.59,3.84,2.54,8,1.91,12.25,1.72,4.93-.22,9.54.75,6.25,7.95a62.36,62.36,0,0,0-5,31.72c1.9,16.92-3.76,33.37-.42,50,1.52,7.53-2,10.05-9.21,10.38-4.38.21-9.14.68-12.32-1.78-6.89-5.31-11.4-2.16-16,2.77C691,261.37,690.9,257.34,688.47,254.71Z"/><path class="cls-2" d="M1370.77,694.58c-.92,10.41-1.65,19.57-11.14,24.7-2.31,1.24-3.41,3.33-4.38,5.61-1.07,2.51-2.16,5.65-5.64,4.75-4-1-3.55-4.84-2.88-7.61,1.47-6,.67-12.06,1.14-18.08.23-2.94-.81-5.83-3.61-6.77-3.56-1.19-3.47,2.53-4.37,4.48-1.1,2.38-2.48,4.6-5.18,4.49-9.69-.38-18,4.73-27.12,6.57-3.57.72-9.66.45-5.64,7.67,1.57,2.82-2.19,3.92-3.78,5.39-7.36,6.78-16.7,11-23.44,18.73s-6.72,9.42,3.18,12.62c3.06,1,6.47,1.7,5.06,5.84-1.32,3.86-4.7,3.41-7.62,1.9-8.26-4.25-16.23.54-24.24,1.09-3.56.24-9.9,4.07-4,10.4,2.15,2.3,1.2,3.84-1.73,4.28-1.2.18-2.93-.34-3.56.3-8.93,9-19.19,3-28.92,2.7-5.78-.19-6.76-3.57-4.4-8,6.66-12.5,15.62-23.46,24.18-34.64,4.13-5.38,8.54-11.38,17.44-7.44,4.31,1.91,6.73-3.28,10.19-4.89s6.7-2.93,2.48-7.79c-2.07-2.38,1.73-4.68,3.88-6.17,8.58-6,17.19-11.87,25.93-17.6,6.6-4.32,12.66-8.46,16.62-16.13,2.83-5.47,11.61-8,14.12-13.47,4.49-9.79,16.7-10.69,20.62-20.71,1.2-3,4.26.44,5.06,2.4,2.22,5.46,4.28,10.59,11.29,11.59,1.41.2,3,3.07,3.49,5C1366.41,675.68,1368.66,685.67,1370.77,694.58Z"/><path class="cls-2" d="M1471.61,321.37c-7.56,11.37-6.44,21.66.32,31.61,2.18,3.2,5,.41,7.58.89,2.17,3-2.8,4.54-1.44,7.31,1.25.93,2.37.24,3.26-.51,5.64-4.78,10.06-1.7,12.83,3,3.18,5.38,10.16,12.72,4,17.63-9,7.19-15.63,14.89-17.59,25.9,19.51,6.16,36.11,19.59,54.71,29.11,8,4.1,13.09,15.2,25,12.51,3-.68,7.77,1.55,10.13,5.22,2.64,4.13,5.62,6.08,10.57,3.24,4.37-2.51,5.27.86,5.58,4.16,1,10.6-3.14,20.29-5.58,30.27a4.22,4.22,0,0,1-4,3.25c-4.22,0-2.17-4.42-4.1-6.07-10.31,7.79-23.45,2.21-26.75-10-2.29-8.51-5.09-16.74-5.91-25.63-.33-3.63-5.29-4.09-7.57-3.11-11.13,4.76-20.54-2.81-30.83-3.64-9.73-.77-19.16-4-29.21-2.43a21.48,21.48,0,0,1-17.25-4.33A53.17,53.17,0,0,0,1431,428.31c-4.16-.77-9-2.49-9.7-7.18-.78-4.93,5.91-3.17,7.63-6.57.75-2.95-8.17-3.76-2.48-7.08,4.35-2.55,9.44-7.22,14.89-4.64,3.25,1.53.08,5.33-1.26,7.92-.94,1.8-3.44,3.4-2.08,5.58,1.54,2.49,4.57,1.89,6.66,1,4.59-2,9-3.08,14.07-1.76,3.61.93,4.3-2.1,4.69-5.11,2-16.13,3.18-32.36,5.72-48.45.93-5.87-5.75-9.8-8.71-14.58-5.43-8.75-6.31-11,1.39-17C1464.88,328.09,1463,321.49,1471.61,321.37Z"/><path class="cls-5" d="M690.26,681.54l1.8,3.64c2.07,6.63.93,11.26-5.42,15.92-8,5.85-6.81,16,1.22,27.4.49.76,1.23,1.56,1.19,2.4-.85,18.14,3.7,35.87,4,53.93a32.45,32.45,0,0,1-2.68,13.53c-25-1.37-50.1-2.48-75.11-4.24-8.67-.61-11.21-6.32-6-13.2,9.81-13,20.24-25.61,30.41-38.37a12.25,12.25,0,0,1,8.58-4.56c5.46-7,6.18-14.28,2-22.16s-.17-14.77,3.57-21.52c4.38-7.39,1.36-17.64,9.16-23.72,3.7-4.42,5-9.89,6.59-15.22,2.71-9.34,4.47-10.29,13.48-6.71h0c4.87,9.26,12.17,18,6.38,29.58C688.78,679.44,689.69,680.5,690.26,681.54Z"/><path class="cls-3" d="M577.06,265.75c-.13-8,9.57-11,9.52-19.1,0-1.67,2.52-1.13,4-1.07,7,.3,14,.58,21,1,4.85.29,6.18,2.5,4.46,7.32-3.72,10.45-11.18,15.22-22.6,14.61-4-.22-10.61-3.82-11.6,2.8-1,7,6.36,5.58,10.66,6.81a46.79,46.79,0,0,0,6.33.9c-5.78,7.44-5.34,10.25,3.28,14.09,4.36,1.94,5.11,3.44,3.74,8-2.51,8.38-3.83,17.1-5.75,25.66-.56,2.5-.58,6.37-4.83,4.42-6.09-2.82-7.39,1.16-8.72,5.47-1.28,4.11-4.38,6.89-8.09,4.68-4.22-2.5-6.85-1.28-10.45.69-6.1,3.35-12.14,7.16-19.62,7a3.53,3.53,0,0,0-3.78,3.32c.08,7.74-5.73,10.06-11.23,12.71-4.7,2.26-9.3,4.56-11.81,9.55-1.44,2.88-4,3.52-7,2.83s-3.91-2.83-4.11-5.39c-.57-7.4-1.48-14.82-1.29-22.21.12-4.7,1.53-9.86,8.32-4.87,2.26,1.67,6.32,2.75,6.76-.8.85-6.81,6.54-10.78,8.2-17.06,2-7.46,7-12.65,15.06-14.07,2.56-.45,5-1.14,5.32-4.05.34-3.09-2.44-2.63-4.34-3.41-3.76-1.55-1.26-3.87.35-4.47,8.47-3.1,12.49-13.67,23.23-13.22,4,.17,3.11-3,.83-4.85-2.78-2.22-6.79-3.45-5.32-8.31C568.47,269.38,572.29,267.06,577.06,265.75Z"/><path class="cls-2" d="M1669.56,497.52c1.1-6.93,2-14.12,8-19.35,5-4.3,7.43-9,7.1-16.52-.23-5.3-2.07-14.18,7.21-17.12,1.68-.53,2.61-3.93,3.58-6.15,1.87-4.27,3.73-10.16,0-12.63s-6.2,3.41-8.48,6.28c-6.6,8.33-15.85,13-24.8,17.88-5.76,3.16-19.54-3.16-22.49-9.76-.48-1.08-.27-2.56-.94-3.45-7.18-9.57-7.29-9.72-6-10.33,6.13-2.91,4.79-10.63,10.75-14.88,6.54-4.66,12.46-11.05,19-16.3,5.23-4.24,9.54-12.05,18.32-6.17a1.76,1.76,0,0,0,1.7-.25c4.25-6.77,15.15-5,17.71-14.35,2.07-7.6,13.15-8.88,13.89-18.35.1-1.32,5.9,3,9.6.52.45-.3,1.36,3.71.81,5.69-4,14.24-9,28.27-12,42.7-3.26,15.65-6.48,31.52-12.1,46.21-6.46,16.92-5.39,36.6-18.43,51.06-2.26,2.51-2.49,8.4-7.09,6.8C1670.52,507.52,1668,503.15,1669.56,497.52Z"/><path class="cls-2" d="M1541.37,582.19c.74-6,2-13.72-2.87-21-2.45-3.71-4.51-8.56-.1-12.47,4.22-3.74,9.24-5.86,15.1-3.91,3,1,6.73,5.43,7.67-2,.2-1.58,1.9-1.26,3-.75,6.56,3.08,13.7,4.89,20.14,7.94,6.83,3.24,10.76,9.71,8.64,17.94-1.71,6.66,2,16.09-9,18.35a1.81,1.81,0,0,0-1.07,1.38c1.26,8.06-5.77,14.93-2.38,23.73,3.58,9.32.73,20-5,26.69-9.41,11-11.33,23.68-13.42,36.7-.68,4.22-2.28,7.47-5.51,10s-6.66,2.79-8.52-.92c-2.47-4.94-6.41-6.56-11.27-8-5.14-1.54-7.57-6.27-5-10.87,4.46-8.12,4.17-16.92,5.66-25.5,1-6.06,3.14-11.13,11.07-10.47,4.43.37,7.4-2.55,8.74-6.66.77-2.37,1.58-4.5,3.64-6.1,2.49-1.93,4.66-4.35,3.55-7.75-1.6-4.9-4.45-.3-6.71-.55C1549.4,607.06,1540.89,594.77,1541.37,582.19Z"/><path class="cls-2" d="M1423.43,594.22c9.34.62,18.47,5.21,27.77.38,2.77-1.45,5.31.46,4.91,3.33-1.31,9.56.4,19.44-2.79,28.72-.9,2.63-2.25,6.44-6,5.73-3.64-.68-3.73-4.32-3.89-7.41a49.32,49.32,0,0,1,1.39-14.46c.56-2.25,1.28-5.3-1.36-6.59-2.42-1.19-4.6,1.06-6.59,2.29-3.16,1.95-5.32,6.57-3.71,8.53,8.26,10-5.63,14.82-4.84,23.51.89,9.77-4.76,17-13.9,22.57-6.55,4-11.73,10.78-18.21,15.64-2.93,2.19-5.89,2.75-6.33-.43-1.31-9.35-10.78-14.67-11.77-23.23-1.76-15.12-1.16-30.37,8.58-43.49.18-.25.36-.63.6-.67C1400.23,606.23,1410,595.52,1423.43,594.22Z"/><path class="cls-3" d="M661.09,590.3c-.85,2.57-2.36,5.13-2.41,7.72-.14,6.51-2.43,8.22-9.06,6.83-7-1.48-14.79,8.12-12.92,15.2,1.18,4.5,2.21,8.8.21,13.32-2.8,6.31.09,9.4,6.26,9.71,8.16.41,7.54,4.42,5.39,10.38-5.68,15.68-11.34,31.4-16.1,47.38-2.38,8-7.17,8-13.24,6.41-6.88-1.83-9.84-7.19-7.33-13.25,3.81-9.19,2.63-18.81,4.18-28.14,3.61-21.76,6.26-43.71,8.44-65.67,1.13-11.31,9.72-17.62,17.08-21.45,8.65-4.5,9.07-11.17,11.44-17.93,1.27-3.6.13-8,4.06-11.58,2.52,4.88,3.6,10.34,7.73,13.89,2.3.39,4.4,1.1,5.39,3.5,2.45,4.64,9.86,8.62,1.95,14.63-3.44-2-5,1-5.55,3C665.77,587.51,663.44,588.76,661.09,590.3Z"/><path class="cls-2" d="M404.64,279.25c4.29,2.09,6.85,2.15,11.15-1.34,6.88-5.58,16.89-2.85,25.29-5.63,11.94-3.95,24.65-4.12,37.05-5.64a39.08,39.08,0,0,0,14.49-4.78c6.88-3.79,15.26-1.73,22.6-5,3-1.37,7-1.19,10.4-2.72,1.94-.89,4.39-1.9,5.19,1.19.64,2.47-1.42,3.55-3.42,4.63-8.83,4.77-17.38,9.59-24.08,17.7-4,4.89-10.74,7.62-16.36,11.15-3.18,2-6.06,4-6.53,8.14-.83,7.27-7.23,9.42-12.33,9.86-9.81.85-19.78-.3-28.32-6.48a66.69,66.69,0,0,0-21.85-10.51C412.65,288.36,407,285.89,404.64,279.25Z"/><path class="cls-2" d="M763.2,548.43c-3.07-5.41-.71-9.12-.29-12.9.29-2.71,3-6.36-1.94-7.34-3.75-.74-5.52,2.21-6.23,5.33a171.7,171.7,0,0,0-3.2,17,19.89,19.89,0,0,1-6.2,12.69,29.86,29.86,0,0,1-2.68-18.37c1.12-6.13.92-12.56,3.79-18.43a15.37,15.37,0,0,0,.67-12.49c-4-9.52,1.41-18.46,1-27.7-.1-2.36,2.48-2.18,4-2.94,4.93-2.44,9.7-5.83,11.68-10.72,3.32-8.2,7.37-5.17,10.46-1,3.25,4.36,7.21,6.75,11.87,9.21,9.2,4.88,13,12,8.17,22.33a271,271,0,0,1-15.81,29.4c-1.27,2-1.68,7.1-6.06,2.45a1.89,1.89,0,0,0-3.3,1.36C769.3,541.11,764.85,543.27,763.2,548.43Z"/><path class="cls-11" d="M1363.94,466.28c3.32,1.43,6.61,3,10,4.27,4.5,1.76,8.17,4.47,9,9.41a27.21,27.21,0,0,0,4.69,11.36c4,5.88.83,10.55-7.25,10.64,5.06,5.33,5.08,12.25,8.36,17.91,3,5.09.61,6.77-4.51,5.64-2.33-.51-5.32-.8-6.73-2.35-8.81-9.69-20.65-8.82-32-9.66-2.19-.16-4.59.11-5.75-1.88-4.19-7.18-9.37-13.31-16.46-17.84-2.32-1.49-1.68-3.51.4-5.19,6.39-5.15,19.28-5.87,25.95-1.37,5.34,3.61,8.31,1.78,9.45-6.23.75-5.24-1-11.2,4.9-14.7Z"/><path class="cls-2" d="M748,266.84c7.1-6.37-.69-14.36-.26-22.4.45-8.45-.21-16.93.89-25.41.65-5,1.14-11.52,6.1-11.62,4.63-.08,10,4.53,11.28,10.08,2.22,9.44,6.92,16.92,13.74,23.77,4.29,4.31,8.45,9.85,3.48,16.93-2.93,4.17,1.44,7.23,2.67,10.76,1,2.81,3.1,5.9.86,8.59-2.59,3.09-5.6.62-8.2-.71-7.58-3.88-15.39.25-23.14-.75C750.07,275.39,747.43,274,748,266.84Z"/><path class="cls-18" d="M690.33,798.36c-4.43-10.21-2.63-21.24-3.83-31.85-1.34-11.81-1-23.8-1.41-35.72-2.23-3.52-1.1-7.75-2.46-11.58a5.32,5.32,0,0,1,4-6.79c3.27-.57,5.68,1.88,6,5.33.7,8.08,2.56,16.23-.8,23-.49-3.55,1.42-6.33,6.2-7.6,6-1.58,9.17-7.9,15.3-9.48,2.45-.63,5.22-3.16,6.13,1.66.85,8.49,2.47,16.93,1.88,25.52-5.28,7.23-1.28,15.94-3.82,23.61-.26,6-.48,12-.78,18-.15,3-.8,7.79-4.1,6.7C705.08,796.7,697.58,801.8,690.33,798.36Z"/><path class="cls-4" d="M1157.6,84.44c2.68-1.61,4.58-3.28,6.78-4,3.63-1.12,8-.11,10.21,2s-1.95,4.32-3.37,6.45c-4.58,6.86-7.21,14.45-9.81,22.28-3.47,10.47-2.92,22.84-12.91,30.65-1.32,1-1.74,3.61-4.13,2.49-1.86-.88-2-2.91-2.16-4.74a26.31,26.31,0,0,1,3.82-16.57,95.4,95.4,0,0,0,7.7-14.47c-7.34,5.34-14.64,10.66-18.61,19.23-.86,1.86-.59,4.48-3.29,4.89-2.94.46-4.24-1.76-5.56-3.87-7.41-11.9-6.89-19.9,3.49-29.36,6.41-5.85,8.88-14.56,15.84-19.79,2.78-2.09,4.71-6.23,9.12-4.56C1158.69,76.64,1156.67,81,1157.6,84.44Z"/><path class="cls-4" d="M459.41,492.65c-3.36,8-6.65,16-10.11,23.89-2,4.54-3.71,8.68-.31,13.62,2.28,3.29,2,7.78.55,11.48-1.89,5-6.44,8.18-10.38,3.44-5.6-6.74-10.91-2.09-12.43,1.1-3,6.3-9.15,10.3-11.21,17-.45,1.46-.74,3.3-2.76,2.74a4.33,4.33,0,0,1-2.19-2.6c-4.09-12-9.62-23.78-4.27-36.85.33-.81.78-2.13.4-2.57-2.53-3-4.43-6.23-.9-9.47,3.87-3.56,7.29.07,10.81,1.42,2.82,1.08,5.69,2,8.52,3.11,6.38,2.38,12.38,1,14.42-5.34,3.31-10.28,15.1-12.13,17.94-22.31Z"/><path class="cls-3" d="M719.48,725.33c-2.22,1.81-2.78,5.45-6.72,5.42s-5.89,2.54-6.73,6.17c-.39,1.7-.61,4.65-2.63,4.08-12.72-3.64-8.51,5.5-8.85,11.28a52.89,52.89,0,0,1-1.16,5.44c-5.1-13.08-3.23-25.18-6-38.56-1,5.23-1.64,8.43-2.25,11.63-8.07-9-13.38-18.59-5.84-30.64,1.29-2.06,2.32-4.34,4.86-5,5.21-1.35,6.6-5.62,7.95-10,3.68,5.84,6.5,13,15.85,9.86,2.15-.71,3.28.37,3.36,2.82.41,12.77,3.11,14.24,15.4,8.09C728.27,714.08,724.86,720.05,719.48,725.33Z"/><path class="cls-4" d="M948,146.18c-21.8,0-21.79-.24-28.67-21.71-2.39-7.43-1.48-11.51,7.09-12,4.22-.25,8.4-1.48,12.61-1.55,9.21-.16,14.65-4.67,17-13.38.52-2,.52-4.78,3.44-4.44,2.2.25,1.91,2.78,2.31,4.47,2,8.4,7.8,16.25-.36,25.4-2.79,3.12,1.72,10.4,4.08,15.17,3.5,7,1,8.52-5.62,8.11C955.87,146,951.91,146.19,948,146.18Z"/><path class="cls-4" d="M1756.82,777.2c-5.6,10.11-16.88,11-23,19.09-1.45,1.89-3.33,4-6.14,2.76-3.52-1.56-1.83-4.7-1.65-7.24a12,12,0,0,1,6-9.77c18.63-10.45,31.61-28,49.78-39.07a5.74,5.74,0,0,0,2.65-3.4c.68-4.74,3.54-5.2,7.24-4.08,5.23,1.58,3.13,5.82,1.83,8.21-2.58,4.71-4.2,8.5-.6,13.7,2.1,3-1.15,6.1-3.32,8.7-7,8.43-17.72,11.86-25.7,19.5S1759.14,782,1756.82,777.2Z"/><path class="cls-4" d="M430,644.6c-10.59,5.26-15.7,13.1-22.81,18.66C401.1,668,394.71,669,388,670.16c-3.52.63-4.72-1.79-5.19-4.85s-1.91-6-1.51-8.87c2.35-16.63-2.28-34.31,7.06-49.82,1.51-2.5,4-7.83,8.17-3.77,2.93,2.82,6.17,7,1.39,11.8-5.65,5.71-3.63,14-1.75,19.39,1.16,3.35,8.68,7.8,15.6,7.72C417,641.71,422.33,643.33,430,644.6Z"/><path class="cls-17" d="M343.07,704.37c9.86-1.5,11-8.39,12.05-15.41,4.77,2.57,5.1,6.95,6.15,10.42,7.41,24.61,17.05,48.68,19.21,74.64.22,2.71.62,5.57,0,8.14a11.65,11.65,0,0,1-10.62,8.61c-5.08.22-1.41-5.2-2.17-8C365.4,774.38,364,766,361,757.54c-4.57-12.82-8.59-26.86-9.3-41C351.41,710.87,352.33,705,343.07,704.37Z"/><path class="cls-8" d="M1437,57.68c-11.24,7.52-18.56,19.09-28.74,27.7-2.89,2.45-4.81,6.43-10.41,6.35,5.2-12.85,8.54-25.7,6.34-39.32-.55-3.43,2.44-4.33,4.27-6.27C1418,36,1431,29.54,1438.8,17.56c3.74,6,7.31,11.62-.09,17.85-3,2.51-1.84,6.76-.64,10.18A14.57,14.57,0,0,1,1437,57.68Z"/><path class="cls-19" d="M836.29,66.72c12.43,4,22.62,12.2,35.58,19.09C857.81,86.87,854,95.89,852.93,107c-.25,2.51-3.36,5,1.72,7.21,3,1.3-1,3.79-2.37,5-7.62,6.39-15.47,12.53-23.24,18.76-3.43-3.06-4.44-7.64-7.06-11.21l3.85-5.23a23.28,23.28,0,0,1,3.58-21.38c4.42-2.27,11,1.6,13.13-4.19,1.81-1.42-.44-1.38.59-.72.23.15.17.59-.35.73-2.81.78-3.93,4.74-7.54,4-7.12-2.6-3.47-8.16-3.46-12.73-.08-2.5,1.35-4.81.92-7.36C832,75,831.17,70,836.29,66.72Z"/><path class="cls-2" d="M930.4,363.48c-10.95-2.53-21.9-3.07-32.71-5.41-13.33-2.88-17.23-11.64-23.61-19.73-2.78-3.51-3.81-8.42.17-11.45,3.43-2.6,6.58.14,9.07,3.31,3.52,4.48,9.6,2.29,14.51,5.95,10.23,7.61,22.65,12.26,34,18.36,3,1.58,8.47,2.05,7.32,6.54C938.27,364.65,933.17,362,930.4,363.48Z"/><path class="cls-2" d="M1402.28,572.09a113.77,113.77,0,0,0-8.91,13.64c-2.58,4.87-6.63,9.72-13.25,4.39-1.6-1.29-3.21-1.13-5.1-.77-3.87.73-10.07,3.57-10.44-2.15-.36-5.51-6.42-14.24,4.86-17.32,2.38-.66,4.48-3.09,6.26-5.1,5.89-6.62,11.6-7.13,17.45-.07.56.2,1.19.61,1.68.46C1403.21,562.74,1403.75,563.22,1402.28,572.09Z"/><path class="cls-12" d="M739.79,714.44l-.34-12.8c.28-5.67,3.78-5,7.55-3.86l12.75.32c.84,1.07,0,4.93,3.28,1.93,5,4.24,3.84,12.17,9.68,15.94a2.36,2.36,0,0,1,.18,2.25c-9,9.12-10.87,23.54-22.55,30.7-2.65-3.36-2.72-3.36-2.77-12.44,0-5.07-.53-10.14-.24-15.22C747.64,716,745.66,713,739.79,714.44Z"/><path class="cls-20" d="M747,697.78c-2.71.9-5.53,1.6-7.55,3.86-.87-.24-2.52-.61-2.5-.68,1.87-10.06-1.74-18.94-5.9-27.69-1.42-3-1.95-6.17.44-8.49,3.42-3.33,4.37,1.36,6.26,2.65,7.27,5,12.28,3.43,18-5.89,4.25,2.18-.57,11.75,8.17,10.27.06,0,.8,1.77.5,2.17-5.12,6.95-2,19.76-15,21.2C748.53,695.28,747.8,696.88,747,697.78Z"/><path class="cls-5" d="M1413.25,697.86c7.06-4.65,12.25-4.67,13.37,5.4,0,.27.35.49.47.77,7.58,16.94,7.57,16.91-11.44,19.77-6.91,1-13.79,2.25-20.69,3.38-5.35-1.21-2.94-3.54-1.78-7,2.71-8,9.82-13,13-20.54C1407.36,697,1410.53,697.06,1413.25,697.86Z"/><path class="cls-21" d="M562.52,94.11c.18-1.48.84-4.11.49-4.25-11.24-4.58-2.38-11.69-2.32-17.62,3.13-.34,5,.85,6.12,4,5.87,16.66,18,29.73,26.24,45,2.85,5.28,7.31,9.76,7,16.27-.12,2.49,1,6.39-2.52,6.85-3.37.43-5-2.82-5.66-6-.41-2.07-.32-4.24-2-5.86-6.76-11.44-13.49-22.91-20.4-34.27-.37-.61-2.19-.34-3.34-.48A5,5,0,0,1,562.52,94.11Z"/><path class="cls-12" d="M484.36,522.37c-6.24,6.17-5.62,14.84-11.28,20.16.4-11.79,4.83-22.14,12.44-31,1.92-2.23,5-2.31,2.3-6.63-1.78-2.8,1.46-6.16,4.06-8.36a4.76,4.76,0,0,1,3.28-1.14c2,.28,2,2.21,1.58,3.61-2.36,8,1.77,16.76-3.55,24.72-2.62,3.92.88,8.65,2.86,12.77,1.27,2.65,3.4,5.54.84,8.41-2,2.21-4.9,2.56-7.62,1.7-4-1.26-4.27-4.64-4.08-8.17C485.46,533.44,486.67,528.37,484.36,522.37Z"/><path class="cls-2" d="M981.49,429.68c-2-7.93,4-14.51,3.71-22.18-.08-2.11,1.76-3.1,3.9-2.74,2.56.44,5.22,1.7,5,4.41-.39,5.71,3.1,8.51,6.78,11.85s5.62,8.05,4.1,13.23c-1.59,5.41-6.41,3.26-10,3.81a11.9,11.9,0,0,1-2.72.22c-3.67-.28-6.22,5.89-9.61,2.78C979.69,438.35,982.1,433.5,981.49,429.68Z"/><path class="cls-5" d="M1713.49,233.58c-.22-5.75,1.23-8.55,5-9.64s5.63,1,7,4.11c3.88,8.86,7.86,17.68,11.71,26.55,1.36,3.15,2.56,6.59-1.62,8.58-3.46,1.65-7.82,2.34-9.73-1.55C1721,251.91,1717.05,241.81,1713.49,233.58Z"/><path class="cls-11" d="M1346.22,424.15c14.57-1.23,21.32,2.91,27.34,16.15,1.84,4-1,4.32-3.33,3.83-11.46-2.37-22.58-6.15-34.24-7.86-4.21-.62-4.41-4.36-2.1-7.85C1337.08,423.61,1341.78,423.4,1346.22,424.15Z"/><path class="cls-2" d="M836.66,81.19c4.19,3.4,0,4.26-1.77,5.86-4.79,4.88-10.69,8-16.84,10.8-8.27-10.48-13.76-22.38-15.36-35.52-1.2-9.83,1.49-11.19,10.64-7.24,1.65.71,3.19,1.68,4.77,2.53,2,4.1,6.9,6.92,4.62,12.91-1.28,3.34,2.22,4.65,4.78,5.38A21.14,21.14,0,0,1,836.66,81.19Z"/><path class="cls-22" d="M832.69,23c8.78-.56,17.56-1.3,26.35-1.64,6.16-.23,13.35-.79,7.07,9.11,11.3,1.31,18.39-8.76,28.61-7.8-10.19,8-20.8,13.66-34.66,11.09-8.87-1.65-18.13-1.27-27.21-1.8C826.36,29.12,828.11,26.1,832.69,23Z"/><path class="cls-12" d="M813.77,635.93c5.72.49,12.42-.79,12.94,7.86.23,3.69-13.43,20-15.75,18.53-6.87-4.21-6.44-12.46-7.7-19.13C801.76,635.24,809,636.57,813.77,635.93Z"/><path class="cls-4" d="M797.7,576.27c.1-7.62,2.73-14.83,5-22,1.63-5.22,5.23-5.49,8.65-1,6.45,8.44,5.38,21.3-2.3,28.31-2.69,2.46-5.53,5.86-9.37,4S798.8,579.42,797.7,576.27Z"/><path class="cls-8" d="M482.15,654.15c5-2.34,8.45-6.52,12.46-10,1.76-1.54,3.87-2.18,5.51-.17s.88,4.19-1.27,5.25c-3.78,1.88-5.14,5.66-7.55,8.62-11.85,5.89-20.93,15.42-31,23.64-2.77,2.25-5.71,6.07-9.08,1.79-3-3.78,1.5-5.82,3.57-8.09C462.66,666.54,473.2,661.37,482.15,654.15Z"/><path class="cls-12" d="M507.77,559.34c1.58-.63,3.9-2.63,4.72-.55A9.62,9.62,0,0,1,511,569c-3.56,4.19-10,4.89-12.41,10.34-8.53,5.73-17,11.55-25.61,17.14-2.39,1.56-5.85,4.12-7.86.54-1.83-3.24,1.69-5.7,4.27-6.9C484.72,583,494.61,569.13,507.77,559.34Z"/><path class="cls-5" d="M1772.87,70.47c2.9-3.93,6.94-6.5,10.94-9.1,2.54,9.59,4.3,19.49,7.89,28.68,2.54,6.48-8.61,8.51-3.22,15.42C1777.21,96,1779.32,81.32,1772.87,70.47Z"/><path class="cls-8" d="M818.05,97.85c-.24-10.42.71-11,16.84-10.8,2.51,3.48.93,7.44,1.3,11.17,2.12,4-3,4.37-3.62,7-.44,6.16-4.59,10.78-6.74,16.24C819.32,114.9,820.43,105.8,818.05,97.85Z"/><path class="cls-4" d="M1478.76,603.87c1.26,9.14-6.24,13.37-11.49,18-2.9,2.58-4.77-2.16-4.41-5.29a70.18,70.18,0,0,0-.09-18c-.8-5.64,2.29-7.41,7.32-7.73s8.34.73,8.06,6.68A43.2,43.2,0,0,0,1478.76,603.87Z"/><path class="cls-12" d="M836.66,81.19c-5.09.29-10.28-1.27-15.1-.8-10.41,1-9.45-5.43-6.48-10.32,2.59-4.25,2-8.35,3-12.45l18.19,9.1Q836.47,74,836.66,81.19Z"/><path class="cls-8" d="M500.52,452c2.86.21,6.53-.13,7.12,3.81s-3.12,4.59-5.93,5.56c-1.44.49-2.93.78-4.38,1.25s-3.22.9-3.32,2.65c-.14,2.42,2.07,2.54,3.76,3.13,2.14.75,6.18-.94,5.11,4.09-1,4.52-3.88,6.62-8.11,7.42-3.7.71-4.13-1.9-5.45-4.5-2.72-5.35-6.78-9.73-1.86-16.39C491,454.27,495,452.38,500.52,452Z"/><path class="cls-4" d="M337.94,488.26c-.34-.78-.57-2.18-1.39-3C329,478,325,468.37,320.11,459.41c-1.25-2.28-1.74-5,1.31-6.16s6.8-1.32,8.35,1.51c4.61,8.46,8.72,17.22,12.59,26.05C343.43,483.27,342.57,486.21,337.94,488.26Z"/><path class="cls-13" d="M623.35,722.65c.12,4.57-9.87,18.43-14.49,20.14-3.08,1.14-5.65-.13-4.51-3.1,2.24-5.84,1.29-12.08,3.15-17.8,1.58-4.89,5.85-5.74,10.41-5.25C621.4,717,623.43,718.94,623.35,722.65Z"/><path class="cls-6" d="M690.26,681.54c-6.44-6.77-3.72-16.17-6.79-24-1-2.63-.36-5.94-.46-8.93,1.58-1.44,2.23-4.34,5.24-.62C703.27,666.6,701.69,666.11,690.26,681.54Z"/><path class="cls-4" d="M851,564.68c-1.37,3.05-3.41,5.32-7,4.12s-2-4.35-2.28-7c-.93-10.06,4-18.86,5.89-28.28,1-4.67,3.91-8.1,9-3.08,5.21,6.26,2,12.8-.57,18.41A57.19,57.19,0,0,0,851,564.68Z"/><path class="cls-6" d="M683,648.66c-9.53.58-8.29,10.11-12.21,15.26-2.31,3.05-4,5.84-7.86,6.67,1.46-10.51,1.68-21.38,8.13-30.54,1.48-2.1,2.69-5.32,5.93-4.68s3,4,3.7,6.54C681.33,644.2,682.23,646.41,683,648.66Z"/><path class="cls-2" d="M848.32,474.38c4.46,5.15.82,11.19-3.78,17-1.66,2.09-3.58,4.69-6.76,3.11-2.54-1.26-2.83-4.26-2.08-6.45a72.73,72.73,0,0,0,4-20.28c.13-2.42,1.79-5.17,4.67-4.57C849.38,464.21,848,468.55,848.32,474.38Z"/><path class="cls-2" d="M854.52,608.82a92.45,92.45,0,0,0-5.63,7.93c-1.79,3.18-2.5,6.4,2.24,7.93,7.64,2.47,4.85,5.94.9,9.52-1.35,1.23-2.59,2.59-4,3.7-2,1.58-4,5.14-6.68,3.16-1.78-1.3-3.19-5.29-2.52-7.34,2.21-6.8,1.11-14.41,5.92-20.66C847.53,609.44,850.1,607.46,854.52,608.82Z"/><path class="cls-23" d="M577.06,265.75c-2.15,4.08-3.8,8.7-9.54,9-6.82-5-13.36-10.26-16.36-18.53-.91-2.52-1.74-5.94.71-7.66,3-2.15,4.78,1.41,6.68,3.07C564.42,256.74,568.66,263.94,577.06,265.75Z"/><path class="cls-21" d="M1774.7,203.62c0-1.21,0-2.43,0-3.64-1.71-17.51-4.19-34.89-7-52.25-1.35-8.19-3.92-12.23-12.84-10.34-3.64.77-7.8,1.36-12.06-2.59,7.12-1.17,13.32-.65,19.45,0,5.86.65,7.91,5,8.63,10.23,2.32,16.82,4.52,33.64,6.92,50.44C1778.25,198.94,1776.94,201.38,1774.7,203.62Z"/><path class="cls-24" d="M851,564.68c-2.43-6.18-2.28-12.19,1.32-17.93,3.13-5,2.84-10.85,4.22-16.28,1.85-2.21,3.69-4.42,6.67-8,1.35,11.28-1.52,20.37-3.26,29.56l-3.72,7.19Z"/><path class="cls-3" d="M1402.28,572.09c-2.07-3.66-6.24-4.72-9.13-7.37,3.74-8.24-3.87-12.45-8.07-20.34,9.49,3.27,17,6.35,21.15,13.22C1409.09,562.38,1407.41,568.28,1402.28,572.09Z"/><path class="cls-11" d="M1364,466.29c-1.19-2.83-2.39-6.21-5.64-6.68-8.37-1.22-8.72-7.84-11-14.44,5.22.82,9.76.95,13.89,2.32,7.07,2.35,5.35,10.55,9,15.5,1.48,2-3.87,2.4-6.24,3.29Z"/><path class="cls-6" d="M653.78,694.31c-3,8.4-4.89,16.49,1.08,24.81,2.59,3.6,1.8,8.74,1.54,13.28-.31,5.37-3.71,6.32-8.22,5.59C651.05,723.56,641.35,707.52,653.78,694.31Z"/><path class="cls-3" d="M1526.2,387.46c0,4.13-3.06,6.65-4.57,9.88-2.09,4.44-6.34,8.43-10.56,6-4.5-2.62.7-6.8,1.82-10.19a49.49,49.49,0,0,1,4-8.09c1.31-2.35,2.71-5.56,5.74-4.94C1526.32,380.86,1525.36,384.92,1526.2,387.46Z"/><path class="cls-25" d="M739.79,714.44c5.27-2.42,2.89-9.55,8.79-13.67.62,16.9,1.19,32.53,1.76,48.15-3.25,2.45-3.64-.45-3.83-2.35a154.33,154.33,0,0,1-1-16.07C745.57,724.36,745,718.63,739.79,714.44Z"/><path class="cls-2" d="M1000.61,327.8c.15-4.41,1.61-8.19,5.85-8.31,4.62-.13,6.86,3.37,6.56,8-.33,5.19-.88,12.56-6.36,12.51S1002.13,332,1000.61,327.8Z"/><path class="cls-12" d="M832.69,23c-1.42,3-.91,6,.16,9-7.52-.15-15.22.89-22.07-3.49,1.28-3.65.31-8,3.68-11C820.84,18.37,825.76,24,832.69,23Z"/><path class="cls-12" d="M515.22,449.14c1.2-5.73,2.13-12.06,10-12.8,2.82-.26,5.5.8,5.32,4.54-.13,3.06-9.7,13.95-12.21,13.83C514.65,454.53,515.11,451.83,515.22,449.14Z"/><path class="cls-3" d="M1413.25,697.86C1405,706.3,1395.59,714,1395,727.18c-7.42.19-8.69-3-4.71-8.81,4.22-6.19,8.79-12.16,12.78-18.49C1405.94,695.27,1409,694.19,1413.25,697.86Z"/><path class="cls-23" d="M661.09,590.3c2.29-4.73.23-14.76,11.06-9,2.82,6.45,6.75,6.77,12,2.48,2.42-2,4.57-4.89,10.38-4.38-5.45,6.42-10.5,10.7-18.1,11C671.29,590.54,666.19,590.33,661.09,590.3Z"/><path class="cls-26" d="M571.68,398.41c-4.52-.74-5-4-4.57-6.88.73-5.43,3.67-9.74,9.47-10.23a5,5,0,0,1,5.32,5.87C580.71,392.75,576,395.76,571.68,398.41Z"/><path class="cls-17" d="M1384.66,776.77c11.66-11.79,26.71-9.7,40.94-11C1412,769.51,1398.14,772.42,1384.66,776.77Z"/><path class="cls-8" d="M717.54,774.46c-5.29-10.64-3.74-20.21,3.82-23.61,2,9.1.59,18.26.9,27.44C719.05,778.49,718.94,775.74,717.54,774.46Z"/><path class="cls-27" d="M710.22,452.21l-29.08,10.87C685.52,453.55,699,448.12,710.22,452.21Z"/><path class="cls-17" d="M1384.35,750.57c13-11,29.66-14.23,45.61-19C1416,740.43,1399,742.7,1384.35,750.57Z"/><path class="cls-15" d="M1383.46,760.17a99.41,99.41,0,0,1,35-9.83c.24.86.48,1.73.73,2.59l-35,9.82Z"/><path class="cls-16" d="M127.68,453.91c-6.55-3.93-9.83-10.38-13.84-16.23-.83-1.21-1.08-3.11.79-3.74a3.49,3.49,0,0,1,3,1.18C121.72,441,126.38,446.48,127.68,453.91Z"/><path class="cls-3" d="M1553.37,435.78c-1.17-13.19,4.56-23.9,5.92-37.37C1562.73,412.72,1558.8,423.75,1553.37,435.78Z"/><path class="cls-28" d="M888.49,136.64c-6,8.47-14.93,12.68-23.64,17.27C870.65,145.2,879.53,140.85,888.49,136.64Z"/><path class="cls-29" d="M683,134.23a17.28,17.28,0,0,1-9.16-7.36l12.74-.16c3.79,1.68,7.25,3.75,9.24,7.61Z"/><path class="cls-27" d="M653.74,34l-1.8-9.22c3.54,1.34,5.79,4.17,8,7,1.58,2.09,4,4.22,1.93,7.11-2.29,3.18-5.23,1.93-8,.48C653.8,37.6,653.77,35.8,653.74,34Z"/><path class="cls-30" d="M1788.26,654.24c7.8,0,14.65,2.67,21,6.9C1801.36,661.43,1794.68,658.22,1788.26,654.24Z"/><path class="cls-21" d="M672.13,554.12l12.51-10.69c.6,9.64-4.9,12.87-10.46,16.07C670.18,559,673.21,555.76,672.13,554.12Z"/><path class="cls-14" d="M684.78,495.49c-2.95,2.26-5.12,6.13-9.68,5.2-1.3-.27-1.6-1.83-1-2.95,2.2-4.42,5.6-6.8,10.76-5.88,1.32.46,2.67,1.05,2.38,2.73C687,495.94,685.9,496,684.78,495.49Z"/><path class="cls-14" d="M822,126.73c3.49,1.14,5.24-2,8.18-3.4,2.64,5.23-2.52,9.74-1.12,14.61C821.66,137.36,823.64,130.9,822,126.73Z"/><path class="cls-17" d="M400.47,419.05c1.13-5.46,2.36-10.93,8.33-15C409.26,411.68,405.19,415.54,400.47,419.05Z"/><path class="cls-31" d="M828,145.36c3,2.09,1.83,4.09,2.16,5.74.55,2.68,3.24,5.58-.2,8a3.34,3.34,0,0,1-3.2-.32c-2.48-2.38-2.06-5.36-1-8.27C826.33,148.94,827.08,147.4,828,145.36Z"/><path class="cls-32" d="M921.21,27.63c-2.14,5.87-7.23,6.2-10.88,8.47A2.31,2.31,0,0,1,906.67,35a2,2,0,0,1,1.66-2.7C912.85,32,915.41,26.67,921.21,27.63Z"/><path class="cls-2" d="M1002.47,402.44c-2.35-6.22-2.08-12.24,1.63-20.21,2.34,8.45-2,14.15-1.64,20.22Z"/><path class="cls-27" d="M763,700q-.78,7.47-1.58,15c-3.55-5.56-2.73-11.22-1.7-16.88Z"/><path class="cls-27" d="M684.78,495.49c0-1.21,0-2.42,0-3.63,2.23-1.42,4.32-3.58,7.29-1.77a2,2,0,0,1,.69,3.11C690.76,496,687.94,496.41,684.78,495.49Z"/><path class="cls-33" d="M688.47,77.75c4.73,1.81,9.83,3.21,10.55,9.9-3.33,1.48-4.71-1.68-6.86-2.66Z"/><path class="cls-24" d="M867.7,207.05c4.12-.49,7.24-.52,9.25,2.85.2.35-.65,1.9-1.2,2C872,212.69,869.55,211.15,867.7,207.05Z"/><path class="cls-27" d="M672.13,554.12c.68,1.79,1.37,3.58,2,5.38l-4,7.12-5.39-3.5Z"/><path class="cls-34" d="M834.65,584.69c.89-2.07,1.79-4.49,4.52-4.8,1.29-.15,1.93,1.37,1.78,2.61-.31,2.56-1.36,4.74-4.33,4.83C835.23,587.38,834.57,586.27,834.65,584.69Z"/><path class="cls-21" d="M560.71,72.26c-5.32.55-7.33-3-6.78-7.1.46-3.45,3.17-.61,4.89-.18Z"/><path class="cls-11" d="M1388.41,534.75c-.1,1.82-1.05,2.5-2.36,2.53-2,.05-3.61-.84-4.07-2.85s.76-2.8,2.59-2.61A4.55,4.55,0,0,1,1388.41,534.75Z"/><path class="cls-35" d="M670.49,127l-5.73,1.76c-1.66-1.38-5.6-2.79-3.11-5C665.12,120.72,668,124.57,670.49,127Z"/><path class="cls-36" d="M688.47,254.71c5.15,1,7.3,3.81,5.35,9C689.12,262.45,688.61,258.69,688.47,254.71Z"/><path class="cls-37" d="M673.9,154.2c-.62,1.4-1.25,2.79-1.88,4.19-2.83-1.63-7.43-.82-8.08-6.28C667.7,151.17,670.59,154.07,673.9,154.2Z"/><path class="cls-9" d="M239.54,285.23c-4.68-7.19-10.44,3.69-15.49-.27a129.84,129.84,0,0,1-13.21-12.5c-2.93-3-4.74-6.28-.24-10s.13-7.1-.9-10.61c-.62-2.16-2.74-4.83.48-6.37,2.5-1.19,4.58.61,6.32,2.47,7.68,8.27,14.25,17.56,23.62,24.29a10.65,10.65,0,0,1,4,9.73C243.92,284,242.3,285,239.54,285.23Z"/><path class="cls-7" d="M92.84,89.42c3.85,4.48,8.13,8.66,11.47,13.49,10.59,15.3,20.31,31.23,33.73,44.38,1.48,1.45,3.24,3.4,1.58,5.56s-3.78.29-5.75-.24c-9.09-2.41-13.78-8.22-16.33-17.35-2.66-9.52-11.35-15.5-17.58-22.65S94.22,97.64,92.84,89.42Z"/><path class="cls-7" d="M201.35,185.22c.94-5-.92-8.79-2.74-12.66-1.17-2.48-.34-6.35,2.45-4.36,4.57,3.24,12.45,4.2,11.78,12.7-.29,3.64,2,6.54,4.94,8.11,4.42,2.4,4.41,6.13,4.15,10.1-.22,3.3-.05,7.37-3.31,8.9s-4.8-2.92-7.41-4C202.41,200.24,201.62,192.67,201.35,185.22Z"/><path class="cls-1" d="M1646.21,183.45c-1.49-4.24-2.29-8.61.54-10.82,14.2-11.12,18.44-30.12,32.91-40.9,1.21-.9,2.2-2.08,3.39-3,2.43-1.86,5.31-2.25,7.54-.27,3.24,2.88-.22,4.77-1.76,6.68-9.58,11.94-20.34,22.91-28,36.37C1657.69,176.92,1651.64,179.7,1646.21,183.45Z"/><path class="cls-1" d="M1588.46,358.65c-.4-2.28-2-4.95,1.17-6.34,1.54-.69,3.15.59,3.49,2.12.82,3.74-2.69,3.22-4.61,4.25Z"/><path class="cls-7" d="M562.52,94.11l3.64,3.71c3.84,9.54,3.65,8.71-7.14,11.23-10.4,2.42-20.59,5.35-31.36,4.17-2.87-.31-8.16,2-7.93-2.81.17-3.41,2.39-8.31,7.69-8.85,8.15-.83,16.31-2.25,24.45-2.2C556.83,99.39,560,98,562.52,94.11Z"/><path class="cls-36" d="M653.83,21.17q-.9-9-1.8-18c4,1.11,6.37,4.16,8.65,7.37s4.57,7.13,2.22,10.69S656.93,20.85,653.83,21.17Z"/><path class="cls-7" d="M989.74,635.9c-15.43-6.41-31.92.24-47.59-4.29-6.17-1.79-12.6.88-18.93,1.1-9.05.32-17.2-5.87-26.65-3.48-2.67.68-4.74-1.61-3.87-4.62,1.29-4.5,4.79-7,9-4.9,6.21,3,13,2.86,19.25,4.59,17.48,4.79,32.4-3.17,47.64-8.7,11.58-4.21,19.19,2.13,27.37,7.62,2.88,1.93,2.11,5.52,1,8.42C995.84,635,993.25,636.21,989.74,635.9Z"/><path class="cls-7" d="M1038.15,376.29c3.78-3.57,6.15-6,7.15-10.18,1.83-7.66,19-15.78,25.89-13.33,2.25.8,2.21,12.21,0,14.23C1064.86,372.6,1049.33,377.29,1038.15,376.29Z"/><path class="cls-1" d="M1210.58,203.65c-2.63,8.88-8.92,11.23-17.44,10-6-.85-12,1.88-18,.1-1.63-.48-4.15-.09-4-2.6.12-2.18,2.29-2.65,4.15-2.55,10,.5,17.63-3.08,24.71-10.55,3.23-3.41,7.33,2.86,10.6,5.53Z"/><path class="cls-27" d="M691.35,240.67c-2.8-.23-5.43-1-6.32-3.95-.57-1.94,1-2.78,2.62-2.42,2.82.63,6.25,1,7,4.44C695,240.47,692.86,240.65,691.35,240.67Z"/><path class="cls-3" d="M704,762.79c-2.09-5.11-2.5-10-.4-16.58C707.12,752.86,705.57,757.92,704,762.79Z"/><path class="cls-9" d="M832.57,105.26c1.21-2.35,2.41-4.7,3.62-7,4.73-2.92,8-8.28,14.87-8C846.1,96.64,839.53,101.17,832.57,105.26Z"/></g></g></svg>