<svg xmlns="http://www.w3.org/2000/svg" viewBox="0 0 695.24 473.53"><defs><style>.cls-1{fill:#fff;}</style></defs><title>websiteWendy</title><g id="Layer_2" data-name="Layer 2"><g id="Layer_1-2" data-name="Layer 1"><path class="cls-1" d="M57.92,249c.45-1.28,1.65-2.32,2-3.61.29-.94.61-1.87.93-2.79s.69-1.89,1.05-2.83l0-2.14a298.71,298.71,0,0,0-5.05-52.34c-2.17-11.38-5.5-22.65-8.72-33.56-2-6.69-4-13.61-5.76-20.45a38.16,38.16,0,0,1-.71-9.37c0-1.84,0-3.74-.11-5.63l-.07-1.18c0-.13,0-.25,0-.37-.77-1.22-1.6-2.44-2.31-3.67l-.36-.43.07-.07-.07.06-.07-.11-9.43-3.61,0,0-.15,0c-1.45,1.7-2.88,4.65-4.36,4.67-3.52,0-7.08-1.3-10.56-2.32-.25-.08-.13-2.13.21-3.12.13-.37,1.9-.7,2.05-.47a6.75,6.75,0,0,0,2.83,2.65L2.21,76.86.9,85.37c-.17,1.16-.36,2-.51,2.78A10.4,10.4,0,0,0,.08,92c2.86,16.82,9.52,29.32,20.38,38.22l1.1.89c1.39,1.09,3.28,2.58,3.55,3.61l1.21,4.64,1.08,4.12a4.12,4.12,0,0,1,.8,3.09c2.76,10.63,5.44,21.48,7.33,32.29,2.19,12.47,3.72,25.33,5.2,37.77,2.38,20,4.83,40.44,10.09,60.39a5.08,5.08,0,0,0,1.29-2.25c.6-3.92.36-8,1.24-11.84A78.89,78.89,0,0,1,56,254.26C56.64,252.51,57.29,250.76,57.92,249Z"/><path class="cls-1" d="M66.34,314.39l2,3,2.53-2.57c.71-.71,1.58-1.42,2.5-2.17s1.87-1.53,2.75-2.4l-15.37-8.2c-.31.47-.58.94-.84,1.42.29.66.56,1.33.85,2a38.9,38.9,0,0,0,3.87,6.33C65.19,312.68,65.78,313.53,66.34,314.39Z"/><path class="cls-1" d="M138.58,275.78,131,270.22,126.48,275q1.41,6.61,2.63,13.13l.78,4.18c1.39,7.44,2.82,15.13,5,22.56.82,2.82,3.21,4.8,5.33,6.54a29.81,29.81,0,0,1,2.27,2l2.36,2.39,2-2.68c.62-.82,1.28-1.63,1.94-2.43a33.27,33.27,0,0,0,4.67-6.74,11.59,11.59,0,0,0,.76-5.55,12.05,12.05,0,0,1,.09-2.62,13.17,13.17,0,0,1,1.4-3.19c.33-.61.66-1.22.95-1.84.39-.82.85-1.63,1.32-2.44a18.73,18.73,0,0,0,2.77-6.88c.63-5.19,1-10.48,1.38-15.6.52-7.22,1.07-14.65,2.3-21.82l-.95-.14a4.07,4.07,0,0,1,1.63-3.42c.06-.27.11-.54.16-.8,2.59-11.75,6.19-23.55,9.67-35C177,207.91,179.1,200.94,181,194h0c.69-2.5.07-5.06-.48-7.33-.22-.91-.42-1.77-.54-2.55l-.74-5.28-4,3.5c-.6.52-1.28,1-1.95,1.5a15.6,15.6,0,0,0-4.94,4.93c-1.55,2.89-3,5.85-4.4,8.81v-.07q3.28-17.28,6.55-34.57c.37-1.95.8-3.9,1.24-5.85a80.73,80.73,0,0,0,2.3-14.46c.14-3.61.18-7.25.18-10.86.49-1.09,1-2.18,1.46-3.27.37-.84.75-1.69,1.14-2.54-.61-.57-1.21-1.14-1.78-1.73a9.37,9.37,0,0,1,3-1.11,44.83,44.83,0,0,0,2.5-7.26,32.41,32.41,0,0,1-4.39-4.69,7.79,7.79,0,0,0-2.07,3q0-3.06,0-6.14c-.09-.16-.2-.32-.29-.49-3.71-6.52-4.92-13.74-6.76-20.91a91.6,91.6,0,0,0-9.38-22.11c-.16.2-.31.4-.48.6-1.91,2.38-4.08,5.09-4.31,8.29a145.76,145.76,0,0,0,0,14.63C153,92,153.1,96,153,99.81c-.22,5.76-.51,11.56-.81,17.35a38,38,0,0,0,10.38,5.65,66.38,66.38,0,0,1-10.52-3.2q-.19,3.77-.4,7.52c-.43-2.77-.84-5.52-1.25-8.26a24.18,24.18,0,0,1-12.27-12c-.78-1.69-.11-4.05.91-6.54a49.05,49.05,0,0,0,10.82,14.89q-.78-5.27-1.61-10.51c-.46-2.89-2.22-5.36-3.77-7.53-.66-.91-1.27-1.78-1.77-2.62l-1.29-2.19L134,95.51l.18,2.1c.48,5.44,1,10.87,1.54,16.31,1.19,12.14,2.42,24.69,3,37,.64,13.27.61,26.84.58,40,0,4.74,0,9.47,0,14.2q.07,18.38,0,36.76v5.59l-4.17-11.94Q122.06,198.16,109,160.8l-.36-1.05c-.86-2.51-1.82-5.35-3.75-7.53-3.86-4.37-7.18-6.37-10.12-6.08-2.31.22-4.46,2.13-6,4.38,8.19-1.33,10.93,1.91,11.62,12.54H84.92c-.24,1.55-.46,3.1-.67,4.63-.35,2.55-.71,5.19-1.18,7.72l-3,16.08a25.51,25.51,0,0,1-.49,14.33,24.46,24.46,0,0,1-2.27,4.72c-1,1.7-1.18,4.21-1.11,6.33.17,5.3,3.13,7.85,7.12,6.94a10.5,10.5,0,0,0,3-1.22q3.36,6.34,6.72,12.73l-.5,1c-2.73-2-5.39-4.1-8.22-5.94-.1-.06-.2-.14-.31-.2-3-1.9-6.49-5.29-9.19-4.8-.38.07-.75.17-1.11.27q-2.55,13.56-5.14,27.3l-3.14,16.69a102.92,102.92,0,0,1-3.21-22.29c-.09.15-.17.31-.27.46A43.23,43.23,0,0,1,59,251.9a12,12,0,0,0-2.45,5.18c-1,4.65.84,9.49,1.78,14.24.85,4.34,1.59,8.71,2.37,13.06l-1.44.43L55.79,281a17.8,17.8,0,0,0-1.83,6.8q1.55,4.79,3.37,9.5a14.33,14.33,0,0,0,6.8,3.91c3.29.88,8.71,3.48,14,6.55a8.48,8.48,0,0,0,.89-2c5.22-17.56,11-37,16.18-56.65-1.69-.63-3.41-1.25-5.1-1.7l-3.78,4.77c0-.11,0-.21-.08-.32-.92-3.4-1.12-5.8-.48-7.38,1-2.41,3.87-2.92,9.2-2.08.67.11,1.31.18,1.92.23.81-3.15,1.6-6.31,2.36-9.46.67-2.73,1.18-5.47,1.61-8.23a19.43,19.43,0,0,1-4.93-2.6,40.61,40.61,0,0,1,4.88-.69h.52c.59-4.49,1-9.06,1.4-13.78l.12-1.36-6.94-.94c-.27-5.44,2.59-8.24,6.71-10.49,1.7-.93,2.9-2.77,4.32-4.2l-5.33-3.68c1.56-1.06,3.83-3.06,4.18-2.77,1.18,1,2.63,2.05,3.86,3.17s2.38,2.49,2.52,3.83c.57,5.6-.65,11.37-1.06,16.2l-5.56-.75-1.81-.25q2.31,4.55,4.37,9.12c.54-.4,1.2-.81,1.66-1.22.64,1.44,2.19,3.27,1.77,4.24A20.71,20.71,0,0,1,110.4,221a260.15,260.15,0,0,1,10.65,31.29,6.69,6.69,0,0,1,.42.95.82.82,0,0,1,0,.53q1.31,4.8,2.44,9.58a7.4,7.4,0,0,1,3.24-.28c2.26.43,4.9-.25,7.23-1.07l.71-.26c2.86-1.06,5.44-2.87,8.15-4.35l.71,1.26c-2.69,1.78-5.65,3.27-8,5.43-.25.23-.47.46-.68.68-2.32,2.52-2,4.68,1.84,7.12l.47.31c5.34,3.44,10,8,15,12l-.92,1.17Z"/><path class="cls-1" d="M29.29,107l-.06-.08.08,0,2.1-6.51L33,99.83l5.76,10.68.14,0c.09.17.19.33.29.5q1.09,1.32,2.25,2.61c-.24-3.87-.65-6.39-3.21-6.9-1.77-.35-1.76-.4-1.62-3a14.21,14.21,0,0,0-.09-3.36l-2.33-12.7-.9-4.81h0c-.21-4.27-5.58-20.86-5.58-20.86l-3.85,18.5h0l-.07.34h0l-.4,2a120,120,0,0,0-2.64,25.9c2.73.32,5.64-1.5,8.41-1.8l.09-.1Z"/><path class="cls-1" d="M86.38,155.56c-.06.24-.11.47-.16.71l.26-.12C86.45,156,86.42,155.76,86.38,155.56Z"/><path class="cls-1" d="M169.88,58.57c-7.07,10-1.07,18.09,3.43,26.71.61,1.16,1.19,2.34,1.76,3.52.24-2.68.51-5.34.77-8,.53-5.13,1.07-10.44,1.4-15.7A23.66,23.66,0,0,0,176,57.32c-.28-1-.55-2-.76-3l-1-4.67-5.89,4.76L165.24,57h4.27C169.72,57.84,170,58.37,169.88,58.57Z"/><path class="cls-1" d="M436.24,51.56a22.21,22.21,0,0,1-.11-2.58l.13-3c5-2.92,10.17-5.63,15.56-8.16A10.49,10.49,0,0,0,456.6,33c.23-.5.61-1.38.14-1.85s-1.41-.05-1.86.16A217.74,217.74,0,0,0,431.72,44q1.93-4.35,4.15-8.55c.22-.41.58-1.42.13-1.86s-1.43,0-1.85.17a11.54,11.54,0,0,0-4.79,4.87c-1.56,3-3,6-4.35,9A6.11,6.11,0,0,0,423.19,49c-3.88,4.38-7.49,9.09-10.73,13.38,1.39,2.27,2.13,5.56,3.35,8.1l-1,.55-7.29-6.49-3.09,4.55-6-7.33a28.61,28.61,0,0,0-3.3,2.18l-.14.1c-3.2-.34-6-2.21-8.75-3.9-.18.71-.38,1.42-.59,2.12-.36,1.19-2.22,1.85-3.18,2.94l-3,3.35a11.42,11.42,0,0,0,.3,1.11c-.47,3.27-.95,6.65,0,9.93A28.26,28.26,0,0,0,384.34,88a41.35,41.35,0,0,1,2.85,4.46c1.09,2.1,2.73,5.27,2.63,7.63-.2,5.14-.41,10.44-.63,15.85,1.09.58,2.17,1.17,3.22,1.79l.07-.07-.07.08.07-.08c.08.1.16.19.23.29,3.4,2.42,7.05,4.6,10.17,7.32.33.28.65.56,1,.86,5.34,5.06,5.52,8.94,1.44,17.4l-2.91-5.3L400,133.94l-.42-.76c.27-.15.53-.31.76-.46,2.41-1.58,2.67-3.07,1.48-4.7a12.35,12.35,0,0,0-2.56-2.42c-2.62-2-4.43-5-6.56-7.66l-.3-.21h0L389,120.9c-1.1,26.77-2.41,56.34-4,85.89-.75,13.9-1.92,28-3.05,41.7-.09,1.17-.19,2.34-.29,3.51-1.29-6.16-2.52-12.36-3.72-18.41-3.69-18.51-7.5-37.66-13-56.05-2.82-9.5-5.85-19-9-28.47-2.53,1.82-5.07,3.63-7.57,5.49l-.09.17-.06-.06.15-.11c1.75-3.48,3.47-6.93,6.25-9.49-3.21-9.62-6.53-19.19-9.88-28.68-.38.62-.78,1.24-1.16,1.87-1.38,2.27-1.72,5.18-2,6.22-2.66,7.38-4.72,13.12-6.92,19.23l-3.54-6.48c-.47.55-1,1.08-1.42,1.6l-.64.69c0,.11,0,.22.08.33,1.17,5.07,2.35,10.22,3.64,15.35l1.45-3.62.9-2.26c1.87,4.46,2.38,6.3.88,7.3a7.48,7.48,0,0,1-2.64.87q1.45,5.67,3.13,11.29c.74-1.49,1.45-3,2.22-4.45,2.1-4,4.66-7.68,9.51-9.56l0-.1.06.06-.09,0a32.59,32.59,0,0,1-7.78,14.57c-.91,1-1.88,1.94-2.89,2.84,1,3,2,6,3.14,9,13.88,36.32,22,64.94,26.45,92.8a361.65,361.65,0,0,0,8.47,38.26c1,3.82,6.5,7.94,10.37,7.94h.44c4.13-.36,8.1-6.11,8.75-9.8l1.27-7.05c2.7-14.95,5.49-30.41,6.76-45.8,1.81-22,3.27-44.3,4.67-65.9,1.3-20,2.65-40.59,4.27-60.86l.31-3.89c1.43-18.28,2.81-35.82,10.56-51.26.06-.3.12-.59.19-.89a2,2,0,0,1,.76-.94,64.32,64.32,0,0,1,10.79-14.59C436.67,57.24,436.44,54.22,436.24,51.56Z"/><path class="cls-1" d="M312.62,154.36c-2.61.18-5.13,1.86-9,3.39a5,5,0,0,1-1.72-3.78h0c-.39,5.65-.67,11.35-.89,17,3.13-3.73,7.37-3.87,12-4.1,1.57-.08,3.14-.26,4.73-.45l1.89-.23c1.07-.12,2.16-.23,3.27-.31.07-2.17.2-4.35.42-6.55.47-4.77.71-9.58.82-14.38a20.73,20.73,0,0,0-2.26,3.35C319.68,152.46,317.08,154.05,312.62,154.36Z"/><path class="cls-1" d="M338.6,290.69c-.49-5.21-1-10.42-1.45-15.64-.43-4.91-.73-10-1-14.84-.64-10.76-1.3-21.89-3.41-32.65-1.05-5.32-2.26-10.66-3.44-15.83-3.26-14.37-6.38-28.1-6.46-42.44l-2.14,1.49-2.88,2-8.93,6.2c.16-2.15.28-3.75.4-5.35-.79-.8-4.49.5-8.44,2.47-.12,3.68-.23,7.34-.33,11-.39,13.55-.78,27.42-2.08,41.2l2.77.33c0,2.5-1.23,6.95.29,8.27,2.29,2,6.49,1.86,9.88,2.63l-.08,1.6c-2.39,0-4.8.18-7.18,0s-4.71-.47-7.07-.73c-.25,1.81-.51,3.61-.81,5.4-1.66,10.2-1.35,22.16.91,35.54,1.31,7.79,4.21,15.3,7,22.55l1.31,3.41a18.31,18.31,0,0,1-.49,2.07l-.12.35-.15.4q-.26.63-.54,1.23c-.2.41-.4.81-.61,1.21a2.19,2.19,0,0,0-.11.2l-.21.36c-.46.79-1,1.56-1.45,2.33a64.31,64.31,0,0,0-5.87,10.13c-.18.44-.6,1.4-.13,1.85s1.44.05,1.85-.16a10.7,10.7,0,0,0,4.79-4.87c.35-.85.74-1.67,1.16-2.48l.27-.47.14-.24c.23-.39.47-.79.72-1.18.57-.92,1.17-1.83,1.77-2.74a30.84,30.84,0,0,0,5.91,8.84c2.95,3.28,5.95,6.51,8.94,9.75.43.47,1.46,0,1.85-.16a9.87,9.87,0,0,0,2.75-2.09,9.74,9.74,0,0,0,2-2.78c.22-.53.6-1.35.13-1.86-2.91-3.16-5.83-6.32-8.72-9.52-.93-1-1.87-2.1-2.74-3.21,3.68-14.52,3.94-29,3.45-43.16.81,6.11,1.72,12.25,2.89,18.3.66,3.43,2.94,6.18,5.14,8.84.9,1.09,1.75,2.12,2.45,3.14l1.31,1.91,7.62-3Z"/><path class="cls-1" d="M302.22,150.53c2.63-11.68,10.38-18.68,19.85-24.79L324,124.5c0-.74,0-1.48-.05-2.22,0-1.38-.07-2.77-.1-4.16.23.81.45,1.63.67,2.44.27,1,.53,2.08.79,3.12a12.15,12.15,0,0,1,8.47-2c2.22.29,5.64-4.69,7.69-7.82.55-.84,1.05-1.71,1.54-2.59l-6.24-17.54q-4.52-12.66-9-25.32c-.91-2.61-3.22-4.33-5.26-5.84a27,27,0,0,1-2.17-1.74L318,58.7l-1.95,2.47a31,31,0,0,1-2.22,2.39c-2.1,2.11-4.47,4.51-4.78,7.59-2.92,29.06-5.2,55.3-7,80.12C302.13,151,302.16,150.79,302.22,150.53Z"/><path class="cls-1" d="M324.12,132.77c-4,2.16-7.86,4.43-11.64,6.88a3.87,3.87,0,0,0-1.57,3,84.54,84.54,0,0,0,1.72,8.55,7.2,7.2,0,0,0,2.46-1.36c3.1-3.32,6.07-6.76,9.07-10.18C324.17,137.35,324.15,135.06,324.12,132.77Z"/><path class="cls-1" d="M256.26,330.7c.14,0,.27,0,.41,0-.12-1-.23-2-.32-3s-.17-1.91-.25-2.84a79.4,79.4,0,0,1,.15-14.46l-.67,0c-7.46.37-14.82,1-23.34,1.68l-6.93.57a77,77,0,0,0,3.16-8.89c-.66.47-1.34,1-2.05,1.52-.9-6.11-.67-10.53,4.35-13.6l.25-.15c.44-3.34.69-6.66.8-10-1.72-4.19-4.38-8.52-6.22-9.29l-13.86-5.81-5.58-2.36a135.76,135.76,0,0,1-1.88,32.74l-.15.32s0,.05,0,.06l-.07.12c-.13.2-.24.4-.37.6s-.33.48-.49.73h0c-.3.39-.6.78-.91,1.15l-.54.63,0,0c-.37.39-.74.78-1.12,1.16s-.76.76-1.15,1.14l-.52.49,0,.06-2.53,2.27q-3,2.61-5.94,5.16a12.69,12.69,0,0,0-2.49,2.78,3.89,3.89,0,0,0-.83,2.3c.37,1.77,3.38-.53,3.86-.94,2.82-2.39,5.66-4.8,8.4-7.32a10.46,10.46,0,0,1,0,1.12s0,.11,0,.25-.05.35-.08.53-.09.53-.15.79c-.14.62-.32,1.23-.51,1.83l-.12.34v0c-.12.29-.23.58-.34.86a65.08,65.08,0,0,0-2.81,7.33c-.15.55,0,1.15.6,1.27h0c-.53,1.07-1,2.14-1.63,3.21a19.89,19.89,0,0,0-2.44,8.5,12.22,12.22,0,0,0,1.37,5.36c.23.53.47,1.07.65,1.61l1,3.08,2.94-1.4a19.05,19.05,0,0,1,1.79-.71,11.74,11.74,0,0,0,5.24-3.08,52,52,0,0,0,3.91-5.42l.66,6.28V340a5.59,5.59,0,0,0,0,1.42c1.76,5.17,6.21,8.68,11,11,.78.38,1.6.7,2.4,1a7.65,7.65,0,0,0,1.3,1.81,2.17,2.17,0,0,0,1.25.67c1,.12.68-.86.69-1.56q0-3.62,0-7.21a4.56,4.56,0,0,0,0-1.17.75.75,0,0,0-.07-.12c.1-1,.09-2.08.09-3.13,0-.73,0-1.47,0-2.21l1.68-9.65c2.26,0,4.49,0,6.72.07C241.66,331,249,331.11,256.26,330.7Z"/><path class="cls-1" d="M279.62,75.14a164.39,164.39,0,0,0,16.51-12.23c2.68-2.35,3.82-5.84,4.91-9.23.45-1.36.86-2.65,1.36-3.79l2.2-5.07-5.42,1.07c-1.21.24-2.43.44-3.66.65a59.61,59.61,0,0,0-9,2,38,38,0,0,0-8.25,4.31l-1.27.8A66.15,66.15,0,0,1,244,63.82c.48-.23,1-.46,1.43-.72a11,11,0,0,0,4.79-4.87c.7-1.56,0-2.6-1.72-1.69-8.5,4.55-18.47,5.08-27.14,9.25-2,.4-3.91.76-5.83,1-.14,0-.27,0-.41.06q-.58,8.4-1.18,16.8l-2.08,0,1.29-16.54c-4.9.85-8,2.51-9.8,5.16-2.91,4.4-1.22,10.11.74,16.72l.48,1.58c1.86,6.21,3.78,12.64,3.5,18.59-.5,10.58-1.16,20.11-2,29-1-8.33-1.85-16.66-2.25-25-.08-1.83-3.43.58-3.86.93-1.34,1.12-3.41,3.13-3.32,5.08.4,8.31,1.25,16.59,2.23,24.86,1.54.52,3.11.94,4.62,1.3.94.23,3.09-4.46,4.59-6.93a17.64,17.64,0,0,0,1.1-2.69l1.8-.15c.53,5.64.9,11.29,1.65,16.89.46,3.39,1.47,6.7,2.17,10.06,0,.22.09.45.14.67a50.2,50.2,0,0,1,1.37,9.22c0,6.42-.39,12.83-.63,19.25,0,.08,0,.15.07.23l-.08.07c0-.1,0-.2,0-.3-1.68-5.39-4-10.7-4.83-16.22-1.09-7.05-1-14.28-1.73-21.4l-.15-1.44c-.18-1.55-2.31-3.72-3.91-4.11-2-.49-4-.95-5.84-1.52.93,7.61,1.94,15.21,2.8,22.83-3,26.14-.69,51.72,2.41,75.63.7,5.35,1.29,10.91,1.66,16.6,1.8.74,3.61,1.48,5.42,2.2l2.56,1c5.55,2.2,11.07,4.48,16.73,6.34.35.12.69.22,1,.31-.27-6.87-1-13.67-1.66-20.4v-.07c-3.69-1.48-9,0-13.95,4-2.37,1.91-4.14,2.36-5.55,1.22a5.94,5.94,0,0,1-1.55-2.18c.41-.28.83-.54,1.24-.8a31.81,31.81,0,0,1,19.54-4.74c-.67-6.63-1.3-13.41-1.44-20-.19-9.79-.14-19.8-.09-29.49,0-3.43,0-6.88,0-10.33l1.75.22a82.27,82.27,0,0,0,12.39,1c2.56-.06,4.6-1.76,6.39-3.25a22.83,22.83,0,0,1,1.83-1.43l2.63-1.74-2-2.47a20.65,20.65,0,0,1-1.27-1.92c-1.25-2-2.67-4.32-5.16-5a110.23,110.23,0,0,0-13.73-2.71l-2.66-.41-1.75-23.37c-3.39,1.56-6.95,3-5.07,8.85l-1.75-.36c-.16-2.38-1.38-5.94-.29-6.91a25.86,25.86,0,0,1,6.93-3.89l-4.27-57L229,88c8.28-.72,16.84-1.46,25.49-2.51,5.32-.65,8.38.49,11.3,4.2,1.79,2.27,4.33,3.53,6.8,4.76,1,.49,1.89.94,2.72,1.44l2,1.22,5.47-5.9-7.69-12.94C276.59,77.19,278.1,76.17,279.62,75.14Z"/><path class="cls-1" d="M278.29,318.46c.27-3.42-4.45-6.71-7-7.11a79.54,79.54,0,0,0-11.19-1c-1.95,5.39,0,11.68.25,17.15a.17.17,0,0,0,0,.07c0,.88.12,1.75.22,2.63a66.77,66.77,0,0,0,12.06-3.45C275.66,325.63,278,321.48,278.29,318.46Z"/><path class="cls-1" d="M439,271.5a25.48,25.48,0,0,0,.89,6.36,22.43,22.43,0,0,0,2.79,6.07c.12.19.81,1.44,1,1.43s.61-1,.68-1.23a19.1,19.1,0,0,0,.63-3.52,48.26,48.26,0,0,1,1-7.49c0-.12,0-.27,0-.42l.11,0,2.75-6.1v.29c.13,10.22.27,20.78-.27,31.19s-.67,16.5,2.91,19.85a8,8,0,0,0,2,1.34,27.22,27.22,0,0,1,1.39-4.7c2.21-5.59,6-10.21,9.25-15.07a2.29,2.29,0,0,0,0-.25h0l-7.73-3.07c.25-.74.51-1.48.77-2.23l11.2,4,.22-8.09c-.87-2.42-1.79-4.89-2.73-7.49-4.42,1.41-3,6-3.09,9.85l-2-.12c0-2.53-.7-5.34.18-7.51,1.05-2.56,3.46-4.57,5.29-6.82.84.91,1.84,1.74,2.63,2.67l2.35-88.92a16.87,16.87,0,0,0-5.9,2.27c-5.47,3.61-13.73,7.65-12.39,18.9l-2.52-2.63c-.07.76-.11,1.53-.18,2.29-.93,9.87-3.89,19.85-6.76,29.51-1.54,5.18-3.12,10.53-4.41,15.87a27.53,27.53,0,0,0-.33,8.08c.07,1.08.14,2.15.14,3.21v2.45Z"/><path class="cls-1" d="M450.54,61.15a10.23,10.23,0,0,0-2.08,6.05c.26,13.06.68,26.32,1.1,39.15.31,9.55.62,19.33.86,29.1-1.41-4.8-2.79-9.61-3.85-14.46-2.39,4.28-1.72,9.43-3.18,13.66a35,35,0,0,0-1,3.76c1.7,5.86,3.53,11.71,5,17.62l1.83,1.77q10.28,9.91,20.49,19.87a17.65,17.65,0,0,1,1.86,2.25L473.26,113l-1.44.88-1.07-1.57,2.57-1.64,1.06-40.31c12.94,2.11,23.76,7.74,32.14,16.61a20.89,20.89,0,0,1,11.23-2.71l-9.1,5.11A67.3,67.3,0,0,1,520,109.08c11.91,31.59,22.72,65.71,21.17,101.13a105.49,105.49,0,0,1-2.2,17.2,73.73,73.73,0,0,1,9.5,4.84c4.17,2.59,7.61,4.09,11.88,2.21h0A182.74,182.74,0,0,0,569.77,211c.66-2.09-2.15-.88-2.88-.4a10.32,10.32,0,0,0-4.19,5.14c-.79,2.51-1.67,5-2.6,7.44a180.68,180.68,0,0,0,2.28-34.38l-.7,1.53-13.29-5.76c.34-.81.68-1.63,1-2.44l13,6.45a234.61,234.61,0,0,0-2.12-25.73c-.68-4.93-1.76-9.82-2.81-14.55s-2.11-9.52-2.75-14.28h0c-.33-2.45.45-5.23,1.28-8.17,1.62-5.77,3.63-12.88-3.24-19.18a88.59,88.59,0,0,0-5.2-21.06C547,86.79,546.46,88,546,89.14c-1.75,4.48-2.66,9.28-3.93,13.94l-1.84-.41c.87-4.77,1.3-9.69,2.75-14.27,1.28-4,1.29-6.85-3.23-8.05a25.26,25.26,0,0,1,3-6.19c-2.26-4.82-4.7-9.54-7.11-14.2-1.87-3.62-3.8-7.36-5.6-11.06a22.23,22.23,0,0,0-3.43-4.78c-.49-.57-1-1.13-1.44-1.72l-2-2.57-.9,1c.2-.53.36-1,.5-1.5l-1.87-2.41L520,43.8a48.36,48.36,0,0,0,2.28,21.52c1.5-4.37,5-5.42,8.74-5.06,4,.38,4.73,3.4,4.46,6.95-4.72,1.1-7.83-7.64-13.16-1.74a139.66,139.66,0,0,0,6.16,15c-.79-1-1.61-2.09-2.45-3.1-16-19.17-35.25-27.93-57.23-26a28,28,0,0,0-11.52,3.86,1.37,1.37,0,0,1-.36.65C454.77,57.77,452.58,59.55,450.54,61.15Zm86,77.44,19.68,6.8c-.17.64-.34,1.28-.52,1.93L536,140Zm-7.94-50.5,1,1.66c-1.39,3-2.93,5.7-6.72,4.45-.36-.64-.73-1.28-1.1-1.91Z"/><path class="cls-1" d="M453.62,189.51c.23-2.2,3.58-5,6.07-5.82,4.45-1.45,5.23-4.07,3.76-7.62s-10.18-6.91-13.64-6.66c.69,5,1.18,10,1.52,15q0,6-.19,12A14.61,14.61,0,0,0,453.62,189.51Z"/><path class="cls-1" d="M456.25,320.19a21.53,21.53,0,0,0,3.84.3c.7,0,1.44,0,2.21-.06l3.21-6.42C459.52,313.49,458,316.94,456.25,320.19Z"/><path class="cls-1" d="M446,118.43a77.61,77.61,0,0,1-1.37-10.56c-.1-1.83-3.43.57-3.86.94-1.34,1.11-3.43,3.13-3.32,5.07a80,80,0,0,0,1.6,11.68C439.62,122.12,441.37,119.44,446,118.43Z"/><path class="cls-1" d="M554.47,246.31q2.43-4.77,4.78-9.6c-.86.43-1.7.88-2.52,1.36-2.91,1.69-5,4.78-7.36,7.39-8.13,9.17-17.34,17.66-23.85,27.87-3.71,5.84-7.4,11.5-12.16,16.41a10.64,10.64,0,0,1-1.3,1.1c-1.82,1.33-4.07,2.23-6,3.39l-6.79-5.63a69.54,69.54,0,0,1-12.08,4.94c-.24.84-.49,1.7-.75,2.59-6.89.92-11.39,4.88-12.21,11.05a.28.28,0,0,1,0,.09c-.41,3.33.71,5.1,4.37,5.46,9,.9,13.35-2.29,15.41-11.4.27-1.2,2-3.21,2.45-3.06,3.16,1.07,7.66-1.25,10.3,1.35a6.62,6.62,0,0,1,1.64,3.19c.2.79,2.3,1.64,3.38,1.49.72-.1,1.2-1.93,2-3.42l5.32,4.45a0,0,0,0,0,0,0l.06.09-.07-.06c-1.33,3.39-3.67,4-6.55,2a13.68,13.68,0,0,0-9.36-2.72,12.49,12.49,0,0,0-8.25,4.85c-5.79,7.13-13.14,6.4-20.46,6.22-3.91-.1-6.05,1.15-7.37,4.3,1-.1,2.05-.23,3.15-.36l.43,0H471c19-1.28,36.6-7.21,53.07-14.41-1.57,0-3.15,0-4.67.09,1.52-.77,3.07-2.12,4.54-2a25.45,25.45,0,0,0,4.82-.16q4.54-2.07,9-4.21a12.31,12.31,0,0,0,3.66-3c.36-.38.71-.76,1.08-1.1l1.7-1.58L541,287.76l-9.93,1a138.51,138.51,0,0,0,23-41.65Z"/><path class="cls-1" d="M464.13,299.52c.21,2.65.41,5.3.62,8,.88-.14,2.46-.11,2.54-.43.7-3,1.14-6,1.65-8.94l0,0v0l-.12,0-4.65,1.17.13.05Z"/><path class="cls-1" d="M548.6,241.58c2.81-2.84,1.48-6.35-3-8.24-2.44-1-4.9-1.94-7.37-2.87a108.45,108.45,0,0,1-18.39,38.6q2-1.81,3.91-3.66l7.32-7C536.94,252.88,542.9,247.36,548.6,241.58Z"/><path class="cls-1" d="M469,298.06v0l.16-.17-.5.1.19.07.16,0Z"/><path class="cls-1" d="M595.86,316.59a28.12,28.12,0,0,1-.2,4c-.23,2.5-.54,5.93.65,8.72a28.76,28.76,0,0,0,3.24-2.65C603.8,322.59,606.61,317,610,312c-4.79,0-9.09,1.11-12.36-.26-3.63-1.52-7.17-3.59-9-7.45a13.45,13.45,0,0,1-1.14-4.63c-1,1.93-2,3.83-3,5.71-2.35,4.22-2.86,9.18-3.35,14-.22,2.12-.43,4.11-.78,6l-.49,2.65,7.89,2.06Z"/><path class="cls-1" d="M632.93,199.47a10,10,0,0,1,5.67-1.69q3.74-16,7.54-32v-9.24l1.14-.6c.26.57.54,1.14.82,1.71L651,145.86c-8.9,3.17-17.33,6.15-25.72,9-2.43,12.47-4.92,25-7.35,37.23q-3.42,17.17-6.79,34.35c-5.72,29.36-12.86,51.85-22.81,71.65.56.95,1,1.76,1.44,2.46a9.11,9.11,0,0,0,1.5,1.95c1,1,2.72,1.35,4.19,1.75.64.17,2-.55,2.1-.39,4.18,8.52,13-.57,18.34,4.89a7.63,7.63,0,0,0,1,.84c.86-5.58,1.61-11.17,2.34-16.64,1.55-11.56,3.14-23.5,5.69-35q5.9-26.59,12.05-53.09c-.5,0-1,0-1.48,0a24.77,24.77,0,0,1-4.67-1.23C631.48,202.24,631.79,200.22,632.93,199.47Zm-3.22-11.53c-.4-1-1.68-3.4-1.36-3.63,3.69-2.75,7.63-5.19,11.5-7.71l1.41,2.13c-1.86,1.46-3.74,2.91-5.58,4.38S632.08,186,629.71,187.94Z"/><path class="cls-1" d="M615.25,320.75a18.46,18.46,0,0,0-2.57,5.94c-3.81-3.39-9.5-1.1-14.65,5.13a9.37,9.37,0,0,0,5.42,2.29,15,15,0,0,0,1.86.12,9,9,0,0,0,5.86-1.9C614.56,329.58,615,324.68,615.25,320.75Z"/><path class="cls-1" d="M644.3,6.13c3.06,7.73,3.52,15.42,3.45,23.12,2,1.11,4,2.31,6,3.55-.58-7.72-1.19-15.43-2.51-23-.63-3.6-5.14-6.54-7.87-9.78-3.19,3.15-6.43,6.24-9.51,9.48a6.11,6.11,0,0,0-1.28,3.1,86.12,86.12,0,0,0-1.11,10,30,30,0,0,1,7,2.42C638.68,17.69,640.56,10.78,644.3,6.13Z"/><path class="cls-1" d="M690.4,42.67A15.69,15.69,0,0,0,680,46.14a43.15,43.15,0,0,0,13.94-1l1.32-2.48Z"/><path class="cls-1" d="M665.9,38.59c-.58-.76-1.95-1.93-3-1.48a1.52,1.52,0,0,0-.76,1.09q2.18,1.39,4.39,2.7A4.16,4.16,0,0,0,665.9,38.59Z"/><path class="cls-1" d="M676.85,49.49a45.72,45.72,0,0,0-3.12,5.13,32.53,32.53,0,0,1-3.08,4.91A31.53,31.53,0,0,1,668,52.05c-.39-2.24-.75-4.51-1-6.77-1.32-.7-2.63-1.42-3.92-2.14-.65-.36-1.29-.73-1.93-1.1l-1.07,3.86a2.26,2.26,0,0,0,0,.29l-.19,0-3.91,11.28q-.66-7.09-1.3-14.2c-.17-1.81-.31-3.62-.45-5.43-2.18-1.34-4.34-2.7-6.5-4.05-.18,6.75-.47,13.52.52,20.32-6-5.68-9.35-15.88-9.71-25.89a38.65,38.65,0,0,0-5.13-1.73l-2-.61a65.3,65.3,0,0,0,8.86,34c3.56,6.14,6.72,12.38,8.31,18.78l-11.41,32.93a22.2,22.2,0,0,0-1.33-1.89l-5.48-6.93c-11-13.86-22.29-28.18-33.83-42-1.93-2.3-5.15-2.86-8-3.35a27.83,27.83,0,0,1-3-.63l-3.46-1-.25,3.61c-.06.87-.23,1.86-.41,2.9-.47,2.65-1,5.66.24,8.27A255.86,255.86,0,0,0,595,94.46c4.66,7.57,9.39,15.1,14.12,22.63,4,6.36,8.1,12.88,12.14,19.41,4-2.45,7.87-5.28,10.54-10l7,1.47L628.6,138.67l-5.08,1.5,2.36,3.83a6.76,6.76,0,0,1,.64,3.21q12.66-3.09,25.37-6l.2,0q4.27-17.53,8.62-34.86c.47-1.87,1-3.79,1.54-5.72.28-2.53,1.15-5.18.1-7.54-1-2.15,1.18-5.69,2-8.58.45-1.6,1-3.15,1.75-5.25,1.58.32,3.16.67,4.74,1a57.65,57.65,0,0,1,10.59-12.92,25.06,25.06,0,0,0,4.85-6.28l-.64-.23c-1.49-.49-3-.78-5.86-1.49l9.06-3.71.15,0,1-2.37.8-1.82a77.81,77.81,0,0,1-11.23-1.26C678.67,50,677.76,49.76,676.85,49.49Z"/><path class="cls-1" d="M652,169.59c1.64-1.09,3.32-2.14,5-3.21-.2-3.86-.44-7.73-.47-11.56h-2.24l-8.73,44.45c1.47.5,2.94,1,4.4,1.41,1.09.28,2.17.59,3.26.88,1.17-5.42,2.26-10.85,3.23-16.31a66.26,66.26,0,0,0,.79-12.55C655.23,173.1,653.35,172.87,652,169.59Z"/><path class="cls-1" d="M644.38,205.07l-5.19,26.42,6.64-4.24.93,1.54c1.84-7.36,3.64-14.72,5.3-22.11a50.3,50.3,0,0,1-7.23-1.49Z"/><path class="cls-1" d="M628.87,284l2.31.48c4-13.71,8.37-27.32,11.89-41.16,1.18-4.65,2.37-9.3,3.54-14L638.7,234Q633.78,259,628.87,284Z"/><path class="cls-1" d="M18.51,150.79l1.6-1.45L19.06,144l-2.77-1.22c1.4,13.73,2.47,27.5,4.37,41.15.43,3.09.85,6.17,1.29,9.26.05.22.1.45.14.69H22c2.29,16.38,4.7,32.75,8.18,48.89,2.1,9.77,7.5,18.83,11.4,28.22l2.08-.85q-11.52-58.94-23-117.88A6.76,6.76,0,0,1,18.51,150.79Z"/><path class="cls-1" d="M360.06,419.88a5.12,5.12,0,0,1-3.51,1.68,8.43,8.43,0,0,1-3.74-.79c-3.23-1.37-7-1.2-8.4,3.79-.38,1.32-3.11,2.49-4.91,2.75a4,4,0,0,1-.5.05,12.69,12.69,0,0,1-1.52,0c.18,3.05.36,6.09.55,9.1.32,5.48.66,11,1,16.43.11,1.84.2,3.67.3,5.51l.25,4.63,7,1a18,18,0,0,0-2.6-1.29.41.41,0,0,1,0-.75,32,32,0,0,1,3.93-1.62l4.43-12.25c7.42-1.11,8.48-2.95,8.38-11.69C360.62,431,360.35,425.35,360.06,419.88Z"/><path class="cls-1" d="M385.73,457.81l2.14,1.55-.39-6.57A29.51,29.51,0,0,0,385.73,457.81Z"/><path class="cls-1" d="M381.33,446l.06-.08.92-.77c1.87-1.58,3.3-2.75,4.51-3.57l-4.33-73.49h-2.74c-7.2,0-10.82,0-13.18,2.42s-2.25,5.61-2.23,11.64v.2c0,4-.11,7.92-.25,12.09,0,1.13-.07,2.27-.11,3.43l-5,.89-7.33-30a2.79,2.79,0,0,0,.24-.45,132.3,132.3,0,0,0,4.73-13.86c.15-.55.07-1.14-.56-1.28a4,4,0,0,0-2.31.81,12.17,12.17,0,0,0-2.8,2.46A7.47,7.47,0,0,0,349.4,359c-.59,2.12-1.23,4.23-1.93,6.31-1.73-2.42-3.41-4.88-5-7.42-.31-.52-1.57,0-1.85.11a9.86,9.86,0,0,0-2.81,2,9.66,9.66,0,0,0-2.11,2.73,4.67,4.67,0,0,0-.31.86l12,4.37-.66,1.85L336.5,366.1c1,1.58,2,3.14,3.09,4.68-1.66,1.86-3.29,4-3.73,6.5-.93,5.43-.61,11-.31,16.38l.12,2c.46,8.87,1,17.81,1.51,26.68.52-.27,1-.53,1.57-.77a58.56,58.56,0,0,1,17.43-4.43l3.72-.43c-.08-1.46-.15-2.92-.22-4.39l4-1.12c.37-3.06-.33-5.77-5.32-7.06,3.82-2.65,5.2-2.25,6.9,1.76,1.35,3.18,2.67,6.37,4.36,10.4h-4.45c.15,4,.25,7.76,0,11.49-.91,14.55,8.6,21.42,17,27.47l.89.64a10.07,10.07,0,0,0-1.75-9.45A.41.41,0,0,1,381.33,446Z"/><path class="cls-1" d="M111.92,426.11c-14.15-4.33-14.22-4.35-18.41,2.26l1.72,1.77c-.55,3.59-1,6.57-1.54,9.08,0,.39,0,.77,0,1.15.25,7.81,1,10.84,5,12.91a37.57,37.57,0,0,0,7.26,2.44c.56.14,1.11.3,1.66.46,7.43-9.64,10.84-22.64,5.65-36.36A36.25,36.25,0,0,1,111.92,426.11Z"/><path class="cls-1" d="M110.78,390.36l2.69.64.76-2.67c1.6-5.58,0-9-1.7-10.93-3.29-3.78-9.72-5.25-19.15-4.38v-.18c-2.14.19-4.28.37-6.42.51-3.16.19-6.32.33-9.49.46a36.58,36.58,0,0,0-5.35,5.85c.72,4.59,2.69,8.34,8.13,10.78-5.57,1.36-9.84.72-13-1.6a31.77,31.77,0,0,0-1.56,15.62,30,30,0,0,1,.26,8.32c-.53,4.37-1.24,8.82-1.92,13.12-.3,2-.61,3.91-.9,5.87,5.55-2.59,8.83-2,10.75,2a21.13,21.13,0,0,1,1.59,5.67,12.78,12.78,0,0,0-1.93-3c-2.6-2.94-6.23-3.67-10.59-3.44-.15,1-.31,2.08-.45,3.13a29.91,29.91,0,0,0-.2,6.7l2.69.91c-.87,0-1.74,0-2.59,0,1.32,11.11,9,18.38,15.21,23.13a16.58,16.58,0,0,0,8.1,2.94c-.52-2.93-1-5.86-1.55-8.83l4.24-.84c.22-2.55.12-5.08-1-6.68-.34.34-.7.67-1.08,1l-.57-1.06-.78-1.48a6.51,6.51,0,0,0-2-.11c-1.49.12-2.61,4.63-3.34,6-1.89-3.51-4.36-8.07-7.07-13.09h0c2.47.77,6,1.47,9.09,2.91.62.29,1.21.54,1.76.76a8.8,8.8,0,0,1-.53-2.42c-.71-12.86-1.19-24.43.13-35.74a53.4,53.4,0,0,1,1.83-9.38c-.25-.8-.51-1.6-.79-2.39l2-.75a14.8,14.8,0,0,1,4.9-6.39C95,388.4,101.31,388.1,110.78,390.36Z"/><path class="cls-1" d="M87.53,422.25a6.86,6.86,0,0,1-.22-1.86l-1.09.52Z"/><path class="cls-1" d="M96.8,356.44a3.92,3.92,0,0,0-2.31.81,11,11,0,0,0-4.33,5c-.64,1.65-1.27,3.32-1.91,5a35.23,35.23,0,0,0-6.85,3.54q6,0,12-.27v-.22q3-.63,6.12-1.08a6.78,6.78,0,0,0,2.63-1.44,11.72,11.72,0,0,0,2.55-2.71c.62-1,1.72-3.19-.37-2.88q-3.51.51-7,1.24c-.83.17-1.65.38-2.46.61.81-2.11,1.61-4.22,2.43-6.32A.9.9,0,0,0,96.8,356.44Z"/><path class="cls-1" d="M109.71,410.67l-2.19,9.71a13.39,13.39,0,0,0-7.58-5.14,8.51,8.51,0,0,0-5.53,1.26,11.89,11.89,0,0,0,8,4.82c5.65,1,8.35-1.34,7.81-7.05-.11-1.17-.21-2.2-.28-3.14Z"/><path class="cls-1" d="M97,457.25c-1,.26-2.47,1.5-2.56,2.28,0,.32,0,.64-.07,1a64.68,64.68,0,0,0,0,7.1A43.55,43.55,0,0,0,105.24,459l-7.79-1.77A1.08,1.08,0,0,0,97,457.25Z"/><path class="cls-1" d="M603,459.29c-1.13-.36-2.83,1.13-4.3,1.68-1.21.45-2.88,1.5-3.65,1.06l-.07,0a15,15,0,0,0-1.54,1.29,9.71,9.71,0,0,0-2.11,2.74c-.23.5-.65,1.36-.18,1.85s1.38.06,1.85-.12q4.38-1.67,8.64-3.56c-.08,2.9,0,5.8.18,8.7,0,.67.78.69,1.26.6a6.78,6.78,0,0,0,2.63-1.44,12.15,12.15,0,0,0,2.55-2.71,4,4,0,0,0,.89-2.28c-.14-2-.19-4-.2-6,.9-.42,1.8-.89,2.68-1.38A19,19,0,0,1,603,459.29Z"/><path class="cls-1" d="M605.06,445.14c-.46.47-.95.93-1.48,1.4l-.57-1.06-.09-.18c-4.79.39-9.58.91-14.37,1.28-.11,0-.24-.29-.59-.75.37-.49.68-1.37,1.26-1.61,3.72-1.56,7.32-3.58,11.06-5.07a6.71,6.71,0,0,1-.16-1.08c-.71-12.86-1.19-24.43.13-35.75.22-1.88.48-3.62.8-5.23l0,0-4-10-1.8.6q1.32,5,2.66,10l-.8.3c-2.18-5.26-5-10.37-6.39-15.83a16.3,16.3,0,0,0-3.52-7A32.88,32.88,0,0,0,583,396.58a30,30,0,0,1,.26,8.32c-.54,4.37-1.24,8.82-1.92,13.12-.53,3.39-1.07,6.78-1.53,10.19a27.92,27.92,0,0,0,2.13,15.62c1.31.85,2.62,1.7,4,2.52,10.39,6.49,22.42,5.69,33.86,7.53a42.66,42.66,0,0,0,6.85-7.94C619.45,444.56,612.26,444.64,605.06,445.14Z"/><path class="cls-1" d="M600.79,386.24c.73.28,1.1,2.05,1.24,3.19a3.51,3.51,0,0,0,.64,1.77c1.35-3.6,3.15-6.15,5.47-7.78,4.14-2.9,10.48-3.2,20-.94l2.69.64.76-2.67c1.6-5.58,0-9-1.7-10.93-3.29-3.78-9.72-5.25-19.15-4.38l.08-3c-.89-.26-1.78-.52-2.65-.8l-.62-.35a14.3,14.3,0,0,0-2.91-1.3,36.31,36.31,0,0,0-16.53,14,22.83,22.83,0,0,1,5.31,6.21,26.76,26.76,0,0,0,3,3.64c.61-1.24,1-2.06,1.62-3.32.44.85.94,1.34.9,1.78C598.71,383.86,598.53,385.37,600.79,386.24Z"/><path class="cls-1" d="M627,402.79l-2.19,9.7a13.41,13.41,0,0,0-7.59-5.13c-2.81-.5-5.43,1.13-7.74,2.56-.83.52-1.63,1-2.34,1.36L603.53,413l9,9.23a114.83,114.83,0,0,1-2.93,14.84,19.46,19.46,0,0,1,6.71,1.17c3.38,1.21,8,2.43,9.51-3.63a36,36,0,0,0,5,2.87,36.2,36.2,0,0,0-.4-25.82Z"/><path class="cls-1" d="M610.89,357.52l-1.1.37a9.81,9.81,0,0,0,1.09.09Z"/><path class="cls-1" d="M566.28,364.91a17.48,17.48,0,0,0-1.94-1c.09-.16.14-.29.1-.36l-1-2c-6.16,7.1-7.55,16.28-8.81,24.66-.46,3-.9,6-1.53,8.81-.49-.83-1-1.66-1.46-2.48-5-8.57-9.81-16.66-14.85-24.78-1.5-2.41-5.37-4.72-8.31-4.18-3.43.64-5.09,5.66-5.39,7.37l-1.14,6.22c-1.13,6.13-2.28,12.39-3.2,18.7l.2,0h0l10.86-1c2.19-.22,4.38-.43,6.57-.68-.14,1-.25,2-.33,2.95h-17.5c-.19,1.32-.36,2.64-.52,4h.44l12-.53,1.54-.07-.06,1.35-1.35.07-12.29.61-.49,0c-.1,1-.21,1.9-.3,2.85-.74,7.69-.82,15.52-.88,23.09,0,3.34-.06,6.68-.15,10l-.06,2.29,6.1,1.63,1.14-.88c9.75-7.58,10.61-18.27,11.44-28.6a97.6,97.6,0,0,1,1.38-11.41c.32.71.63,1.4.93,2.1,3.23,7.22,6.27,14,9.77,20.61,1.47,2.76,4,4.59,6.45,6.36,1,.72,1.93,1.39,2.74,2.1l2.68,2.31.29-.51a13.8,13.8,0,0,1-3.52-5.23,4.17,4.17,0,0,0-.19-.44c-.33-.73-.87-1.59-1.89-3.52.93.46,1.67.79,2.29,1.08a14.41,14.41,0,0,1,2.37,1.23c1.18.81,2.35,1.65,3.52,2.49l.86-1.3c1.78-2.62,3.61-5.33,4.18-8.55,1-5.46,1.53-11,2.07-16.42.49-4.83,1-9.81,1.78-14.62,1.19-7.24,2.77-14.32,4.45-21.8l.18-.81c-3-.84-6.09-1.33-9.16-1.94Z"/><path class="cls-1" d="M571.79,355a29.57,29.57,0,0,0-5.74,3.89,9.6,9.6,0,0,0,5.6,3.15,5.42,5.42,0,0,1,3,1.25c.41.43.83.85,1.27,1.25.52-2.36,1.05-4.73,1.56-7.13l.45-2.13q-2.61,0-5.22,0A2.21,2.21,0,0,1,571.79,355Z"/><path class="cls-1" d="M169.17,447.47c.73-4.35,1.49-8.86,1.13-13.34a.41.41,0,0,0,0-.11l-.21,1c-1.18-.41-2.37-.8-3.56-1.19-3.23-1.06-6.47-2.14-9.58-3.5-.6-.26-.08-3.1-.08-4.75l2.32-.54,2.18,3.52c2-.81,3.11-1.4,4.25-1.74l.28-.08c1.09-.27,2.22-.44,3.7-.67-.78-8-1.75-16.07-2.7-23.9-.63-5.21-1.26-10.43-1.84-15.64s-3.22-9.1-7.1-10.6c-3.62-1.41-7.71-.45-11.23,2.62-3.83,3.36-8.89,8.72-11.28,15.21-1.16,3.15-2.17,6.21-3.08,9.21a9.84,9.84,0,0,1,3.49,3.19,28,28,0,0,1,1.61,2.45,13.35,13.35,0,0,0-2-1.24,9.25,9.25,0,0,0-4.06-1,117,117,0,0,0-3.2,15.26,5.39,5.39,0,0,1,3.4-.24c2.39.71,3.7,3.39,5.28,5.33-1.63,3.81-3.13,7.29-5.31,12.39-1.26-3.34-.76-6.89-1.35-9.81a6.42,6.42,0,0,0-2.43-4.15,84.61,84.61,0,0,0,.32,20.47,42.16,42.16,0,0,0,3.78,13.49l.11,0H132c1.9-.56,4.65,1.79,7,2.79l16.86,7.11,1.67.12c5.06-1.65,10-5.15,14.71-10.48a5.06,5.06,0,0,0,.76-1.19c0-.13,0-.27,0-.4h.14c.13-.35.25-.69.34-1s.17-.56.3-.88l1.26-3.28-6.45-1.14C168.82,449.59,169,448.52,169.17,447.47ZM154.7,422.94l-.44.06a75.27,75.27,0,0,1-4.42,25.27l-.72-.74c-1.79-1.82-3.34-3.4-3.58-4.59a74.81,74.81,0,0,1-1.49-14.07c-1.34-.37-2.67-.75-4-1.1,1.4-2.19,3.18-4.23,4.08-6.6a11.34,11.34,0,0,0,.4-1.29A88.84,88.84,0,0,1,151,396a152.47,152.47,0,0,1,2.67,15.77c.48-.94.9-2,1.34-3.12.63-1.62,2.28-2.84,3.47-4.24l1,.66C157.81,411.12,156.21,417.19,154.7,422.94Z"/><path class="cls-1" d="M137.42,464.64l1.16,2.05a20.37,20.37,0,0,0,5.32,2.45l.9.25c-.7-.56-1.39-1.26-2.06-1.79C141.22,466.38,139.79,465,137.42,464.64Z"/><path class="cls-1" d="M149.39,470.13l.72,0a21.48,21.48,0,0,0,6.45-.82c-.21-.12-.43-.24-.62-.37C153.76,469.34,151.57,469.86,149.39,470.13Z"/><path class="cls-1" d="M456.42,427.68c-.41-1.29-1.4-2.3-3.68-2.75a9.57,9.57,0,0,0-1.1-.05c1,2,2.07,4.05,3,6.09a29.9,29.9,0,0,0,2,3.58C456.29,432.3,457.05,429.67,456.42,427.68Z"/><path class="cls-1" d="M458.64,431c-.13,1.9-.25,3.81-.39,5.76a31.69,31.69,0,0,0,5.44,5.31c-.34-.8-.72-1.6-1.08-2.4C461.34,436.77,460.36,433.77,458.64,431Z"/><path class="cls-1" d="M434.1,363.17l-.73-.95-.84,1.94C433.06,363.84,433.58,363.51,434.1,363.17Z"/><path class="cls-1" d="M472.66,439.2a14.13,14.13,0,0,0,2.65-3.34c-4-9.78-8.7-20.55-14.64-30.19l-1.46-2.35c-2.22-3.57-3.83-6.15-3.6-7.24.19-.92,1.66-2.36,3.77-4.19l-.71-.08c-1.56-.17-3.13-.35-4.7-.51-4.47-.46-8.91-.59-12.84-4.32a17.31,17.31,0,0,1-1.73-1.92c.6-.11,1.19-.27,1.75-.43a10.44,10.44,0,0,1,2.94-.64c-.61-3.34-1.29-6.73-2.2-10.1-.65-2.42-2.37-4.27-3.88-5.91-.57-.61-1.14-1.22-1.62-1.85l-.59-.76c-1.48,3.51-3.64,4.83-6.39,5.35a11.87,11.87,0,0,0-1.41,4.94c-.21,9.19-.27,18.53-.33,27.57-.06,8.72-.11,17.74-.31,26.59-.08,3.78-.48,7.67-.86,11.44-.21,2.06-.42,4.17-.59,6.29l1.13.16c-.41.34-.81.64-1.21.91-.09,1.3-.17,2.6-.21,3.9-.09,3.18,2.27,6.15,3.84,8.1a3.7,3.7,0,0,0,2.09,1.25,33.7,33.7,0,0,1,2.73-8.11c.26-.55.53-1.09.82-1.63a28.16,28.16,0,0,1,4.57,4.56c.1-.2.21-.39.32-.59,2.2-4.07,4.49-8.27,5-12.9.9-8.58,1-17.31,1.07-25.76,0-1,0-2,0-3l.3.57c.58,1.05,1.16,2.12,1.74,3.19,1.9-3.6,2.25-6.74-1.22-9.33,1.45-3.26,2.75-6.21,4.44-10,0,2.3.37,3.83-.06,5.1-1.72,5,1.5,7.42,4.78,10,.87.68,1.71,1.41,2.55,2.15,1.3,1.17,2.6,2.38,4,3.6-4.33,2.74-4.35,2.75-2.46,7.57,1.83,4.66,3.64,9.33,5.62,13.92a2.41,2.41,0,0,0,2.14.94,7.9,7.9,0,0,0,3.73-1.83C471.93,439.93,472.3,439.57,472.66,439.2Zm-2-7.88-7.86-3.52c4.87-4.32,6.8-1.44,8.6,1.78Z"/><path class="cls-1" d="M461.91,389.76l.55-.47,1.26-1a53.11,53.11,0,0,0,7.22-6.73,21.64,21.64,0,0,0,3.14-5.73c.32-.75.63-1.49,1-2.21l1-2L469.61,366l-22.32,20.19c3.63,2.17,7.65,2.87,11.74,3.32Z"/><path class="cls-1" d="M478.74,444.51a13.77,13.77,0,0,1-3.33-.86c-1.72-.57-4.28.74-6.36,1.91,2,1.12,4,2.1,5.91,3l6.58,3.1-2.65-6.78Z"/><path class="cls-1" d="M225,377.63l1.13-1-3.45-2.08a20.35,20.35,0,0,1-1.77-1.27c-1.78-1.37-3.81-2.93-6.29-2.82-5.3.21-10.6.89-16.21,1.61l-4,.51a16.33,16.33,0,0,0-1-4.82,11.67,11.67,0,0,0-3.3-4.23c-.41-.38-.82-.76-1.19-1.16l-2.4-2.63-2.08,2.89c-.28.38-.6.74-.92,1.11a9.59,9.59,0,0,0-2.57,4.4,37.22,37.22,0,0,0-.24,9.15c.24,3.73.49,7.71.76,11.84.49.47,1,1,1.52,1.49l-1.38.7c.52,7.83,1.1,16.19,1.74,24.67.14,1.85.26,3.71.38,5.57a150.48,150.48,0,0,0,2.35,20.81c1,4.57,5.71,9.06,9.59,10.62a12.92,12.92,0,0,0,4.5.88,20.68,20.68,0,0,0,9.11-2.08c6.8-3.12,12.33-8.85,14.42-15l1.73-5.05-23.24,5.85-2.55-23.47,15.87-8.71-2.22-7.42-14.83.58-.26-11.55,3.12-.26a117.26,117.26,0,0,0,14-1.71c2.53-.53,4.36-2.45,6-4.14.59-.62,1.15-1.2,1.68-1.67-5.84-.86-11.66-1.9-17.5-2.82a9.84,9.84,0,0,1-5.43-2.71c1.36.11,2.74.11,4.08.33C211.12,375.25,218.05,376.55,225,377.63Z"/><path class="cls-1" d="M413.45,379.19l-.34-2.43c-.18-1.21-.4-2.42-.63-3.63l-2,.49c-1.9.47-3.51,2.12-6,3.73l-2.79-.66-5.11-1.23c1.1-.48,2-.91,2.89-1.31a29.09,29.09,0,0,1,4.68-1.91c2.57-.68,5.19-1.32,7.82-1.74-.31-1.42-.63-2.85-1-4.33-.41-1.77-.84-3.62-1.26-5.59l-1-4.73L405,359a19,19,0,0,0-1.68,1.68,12.24,12.24,0,0,1-1.86,1.82c-5.05.37-8.48,2.09-10.21,5.08-2.86,5,.32,11.55,1.36,13.71C400,396.57,401.51,413,402,428.38l0,.91c0,2,.07,4.46,1.4,6.41a38,38,0,0,0,5.06,5.69c.68.68,1.37,1.35,2,2l2.18,2.29.6.08,1.78-2.83a27,27,0,0,1,1.81-2.41c1.83-2.27,3.9-4.84,3.58-7.8C418.55,414.85,416,396.72,413.45,379.19Z"/><path class="cls-1" d="M501.21,408.7c0-2.26-.09-4.52-.1-6.8l-14.67-2.56-4.51-.78c0,2.63-.05,5.25-.07,7.84v1.35c0,1.13,0,2.26-.07,3.4a54.47,54.47,0,0,0,.62,12.4c.6,2.91,2.34,5.28,4,7.56.66.91,1.29,1.76,1.82,2.61l1.66,2.67,1.74-.62,1.38-1.84c.63-.84,1.37-1.67,2.15-2.56,2-2.23,4-4.54,4.88-7.51,1.37-4.7,1.27-9.66,1.17-14.47Z"/><path class="cls-1" d="M496.8,364.58l-1,.87a5.24,5.24,0,0,1-1.31-.11,10.58,10.58,0,0,1-3.6-1.87,33,33,0,0,1-3.15-2.6c-.21-.18-.46-.42-.75-.65l-2,1-.68-1.37a6.33,6.33,0,0,0-1,3.45c-.26,3.52-.28,7.08-.29,10.6v.55a14,14,0,0,0-.67,3.58c-.2,4.76-.32,9.57-.39,14.35,4,.56,8,1.12,12,1.71a4.66,4.66,0,0,1,3.29,2.72c-3-.5-6.06-1.09-9.11-1.47L482,394.6c0,.54,0,1.08,0,1.62,6.72.79,14.45,2.54,19.15,4.82,0-9.59.78-19.25,5.15-28.29.91-1.88.94-3.92,1-6.27,0-1.13,0-2.42.16-3.87l.44-5.39-4.73,2.62A35.3,35.3,0,0,0,496.8,364.58Zm-13.46.33c0-.56,0-.84,0,0Z"/><path class="cls-1" d="M265.83,373.15a6.06,6.06,0,0,0-2,1,29.73,29.73,0,0,0,.32,4.17A12.6,12.6,0,0,0,266.2,376a4.5,4.5,0,0,0,.67-1.26,2,2,0,0,0,.22-1l-.19-.45A1.13,1.13,0,0,0,265.83,373.15Z"/><path class="cls-1" d="M266.64,436.83l-4.77,11.71c1.82,1.54,3.78,3.86,4.34,3.56,2.65-1.41,7.24-4.39,6.91-5.27C271.79,443.19,268.94,440.11,266.64,436.83Z"/><path class="cls-1" d="M271.42,419.32a62.27,62.27,0,0,0,6.12,13.19,27.16,27.16,0,0,0-3.28-8.8A48.57,48.57,0,0,0,271.42,419.32Z"/><path class="cls-1" d="M266.39,413.13c-1-1.06-2-2.13-3.06-3.22h0a37.28,37.28,0,0,0-5.75-4.46,23.6,23.6,0,0,1-5.75-4.77c-1.21-1.59-1.64-4.17-2.1-6.91-.07-.43-.15-.87-.23-1.31l.27-.07a25.35,25.35,0,0,1,6.11-1.13,9,9,0,0,1,3,1l1,.42c.13-.32.28-.63.43-.94l.42-.85a5.8,5.8,0,0,0,.61-4.14,2.83,2.83,0,0,0-3.73-2.08c-7,1.9-12.92-1.36-19.1-3.09a14,14,0,0,0-2.22,2.68c-5.63,9.19-4.1,19.44,4.18,28.1,1.32,1.39,2.68,2.76,4,4.13A141.93,141.93,0,0,1,254.19,427c2.29,2.86,3.13,5.78,2.36,8.23-.82,2.61-3.37,4.65-7.19,5.76-8.82,2.58-13.53,8.85-14.39,19.18l-.36,4.31,4.12-1.3c2.52-.8,4.92-1.59,7.24-2.36s4.44-1.47,6.6-2.15a9.42,9.42,0,0,0-1.43-1.14,18.76,18.76,0,0,0,5.37-3.75c4.91-5.07,4.52-11.9,4.71-18.78a35.47,35.47,0,0,1,1.25-9.53C267.26,422.37,267.57,418.68,266.39,413.13Z"/><path class="cls-1" d="M279.72,374.73q-7.73,2.11-15.57,3.66a33.21,33.21,0,0,0,1,4.6,70.17,70.17,0,0,1,2.17,10.35,4.39,4.39,0,0,0,2.25-1.53c1.28-1.72,1.39-4.91,1-6.47a3.54,3.54,0,0,0-.94-1.68l-1-.31h.62a.87.87,0,0,0-.11-.09q2.89-.7,5.76-1.5a9.83,9.83,0,0,0,5.18-4.15C280.59,376.84,281.84,374.15,279.72,374.73Z"/><path class="cls-1" d="M253.84,377a38.37,38.37,0,0,0,3.8,4.09c1.05-1.5,2.68-2.9,3.15-4.51l-2.25,1.88A35.94,35.94,0,0,0,253.84,377Z"/></g></g></svg>